<?xml version="1.0" encoding="UTF-8"?> <svg xmlns="http://www.w3.org/2000/svg" id="LAYER_1" viewBox="0 0 306.1 270.6"><defs><style>.cls-1{fill:none;stroke:#f7f8f8;stroke-miterlimit:10;stroke-width:2px;}.cls-2{fill:#f7f8f8;}</style></defs><path class="cls-1" d="M264.4,210.29c-2.06.52-2.68-1.96-3.19-3.71-.31.21-.82.21-1.24.31-.52-1.65.62-3.4-1.24-4.64-.93.72-1.44,1.65-2.78,1.65-.1-1.85,2.37-2.27,1.75-4.43,0-1.13-2.16-1.85-1.24-2.88.52-.52.31-.93-.41-1.34-1.75-1.03-2.78.82-3.81,1.75-2.27,1.55-4.43,2.99-5.46,5.56-1.34,1.44-3.09,3.4-2.16,5.36.82,2.27-1.13,4.64-1.85,6.7-.31,2.68-2.68,4.53-3.19,6.9-.52,1.65-6.49,9.06-7.93,8.55,1.55-4.94,4.64-10.71,8.34-15.04,2.68-2.68,2.68-4.74-1.55-4.84,1.03-1.24,2.16-1.65,3.4-2.37,1.03-5.46,5.56-9.06,5.36-15.04.62-1.85,1.75-3.09,3.61-3.5,3.71-2.47,8.45-5.36,11.02-8.86,10.61-2.58,6.08-12.26,12.98-17.41l.52-.72c.82-2.37,2.78-6.18-.82-7.42-1.24-.21-.72-1.85-1.24-2.68-1.75-2.88-4.64-5.25-5.87,0-2.47-.82-3.19-4.53-5.15.41-.62,2.16-2.78,5.05-5.05,4.84-.31-1.85,2.88-4.33,3.19-6.49,0-1.44,1.65-2.27,2.06-3.61-1.13-2.06-3.71-.41-4.84.72-2.06,1.44-5.77-.82-5.67,2.99-1.96,2.16-1.03-2.06-1.65-2.78-.41-.52-1.96-.62-2.58-.93-1.55-1.24-3.3-2.06-4.64-3.5-1.34-.82-2.06-1.03-1.85-2.78.72-3.91-3.81-1.85-6.39-4.64-2.68-.72-1.65-2.06-3.5-3.3-1.85-1.03-3.91-1.44-5.46-2.88-.72-.72-1.75-2.06-2.58-1.75-1.44.72-.31,3.4.31,4.53.41,1.24-.1,1.65-.1,2.78.52,2.47.93,4.74-1.24,6.49-2.27,7.31-2.16,0-4.22,2.78-.82-.72-.72-1.96-2.27-1.24-5.05,4.22,0-5.25-7.11-4.84-.31-2.37,2.06-5.87-1.34-6.9-1.75-1.03-2.37-.52-4.02-.52-2.68-.21-2.78-4.33-5.87-3.71-9.17-2.78,1.65,3.61-12.15,2.06-1.96-.1-4.02,0-4.22,2.78-.1,2.27,2.58,3.3,2.99,5.36.21,7.42,1.24,4.53,4.64,9.68,1.24,4.64-5.46,9.27,2.68,11.64,1.75.31,2.78,0,4.02,1.96,2.47,2.68,2.78,5.87,2.78,9.48,2.27,7.83-7.73,8.14-4.43,12.36.93.72.82,1.85,1.03,2.99,1.55,2.68,1.55,5.87,2.37,8.65,2.06,2.99,4.33,6.39,3.4,10.2-1.03.21-1.44-.72-2.37-1.13h0l-.41-.21h0c-.82,1.24,0,2.88-1.65,3.5-1.96.82-2.06-.72-2.88-1.85-1.75-2.68-4.74-1.44-7-1.96.82-1.24,1.75-2.27.41-3.61-1.34-1.96-2.58-4.22-3.71-6.28-.21-2.27-.72-4.43-.93-6.7-.52-4.33-3.91-1.96-6.49-2.58-2.47,3.3-5.87-2.27-8.96-1.96-2.88,0-4.53-4.33-7.11-4.94h0s-.31-.1-.41-.1h0c-1.96-.82-4.43,0-6.39-.41-1.96-.82-4.12-1.85-6.28-.82-4.53,2.37-1.03-8.03-6.9-10.51-2.58,1.34-2.47,1.75-3.4-2.68-.72-2.16.21-4.64-.31-6.8h0c-3.4-3.5,5.15-10.3,4.43-12.67,2.37,0,2.06-2.47,1.75-4.12,2.88-.1,6.08-1.96,2.37-4.53-2.78-1.96-5.46-1.03-8.34-1.96-1.75-.62-3.3-2.16-5.25-2.27,3.5-4.43,14.01,6.18,17.1-.21.31-1.55,2.16-2.16,3.81-1.34,1.03-1.03.31-2.47,1.44-3.61,4.43-7.52-7.83-1.03-9.37-8.03,2.99,0,5.15,2.58,8.14,2.06,3.4-.21,1.75-5.15.62-6.9,1.75,0,4.74-1.44,6.8-1.03-.1-.82-.52-1.55-.93-2.27,1.03-.41,1.65.62,2.68.62,2.06,0,3.3-2.99,3.19-4.53-1.03-4.43-5.36-1.03-3.3-7.93.62,0,1.03-.52,1.44-.82-1.13-.62-.62-2.47-1.34-3.4-.93-1.44-1.24-.82-2.47-1.24-1.44-1.03-2.99-1.44-4.74-1.24-.82,0-2.27-.41-2.68.21-1.03,2.16,4.22,2.88,3.19,4.94-2.27,1.24-2.88,3.81-2.37,6.18.93,2.78-1.55,7.93-4.02,3.61,0-1.75-.72-3.19-.82-4.94,0-1.24.72-3.5-1.13-3.61-.41,0-.62,0-.62-.52s-1.44-1.03-1.85-.52c-1.44,1.55.52,4.53-.21,6.18-1.13.52-1.44-1.44-1.65-2.88-.21-3.91-2.27-2.47-4.12-4.94-1.03-.82-1.13-.93-1.03-2.58-.82-3.4-1.03-12.67-5.46-12.77-1.96.52-.62,2.47-.82,3.71-.1.82-.31.82-.82.93-2.58.31-2.37,3.81-1.44,5.56,2.06,8.45,3.71,3.61,6.59,6.9.41,1.24-.93,1.65-.93,2.88.62,2.78,1.96,5.77-2.27,5.77-1.03,2.06,1.13,4.02-.21,5.97-2.58-2.78-1.65-9.37-7-8.55-.21,2.27,2.47,6.7-2.16,3.61-3.91.62-7.21,2.06-10.09-1.44-4.74-2.06-2.88-3.3-8.34-.62-.62.21-2.37,1.85-1.44,2.68,1.24,3.19.93,6.7-.21,7.42-1.96-1.96-1.85-4.74-2.58-7.11-4.33-5.25-11.33.21-14.52-6.18h.62c1.13-.72,2.27,0,2.99-1.65,1.44-2.47-1.44-2.99-3.3-2.99-2.27-1.03-3.71-4.33-5.87-5.56-.82-.52-1.85-.31-2.47-1.13-1.03-1.34-1.03-2.68-2.88-3.4-1.55-.52-2.88,1.55-4.43.82-1.75-1.75-.72-5.77-4.64-2.27-1.24-.21-.72-2.16-.62-3.19.41-1.75-1.96-7.73-3.3-2.68-.21.62-.31,1.34-.72,1.65-2.06.41-5.36.21-7.93.41s-.41-.31-.1-.41c3.61-1.85,5.15-3.19,5.15-3.19-.41-.21-.82-.31-1.24-.31h0c-2.58-.41-5.25.93-7.73,1.24-.62-.21-.31-1.75-.93-1.96-1.96-.21-1.96,3.81-4.22,2.88h-.52c-.82-2.58-2.06-4.84-3.71-6.8-.21-.82-.31-2.88-1.13-3.09-13.6,14.21-25.03,32.24-36.67,48.41.52,1.44.93,2.27,1.44,3.81,1.03-.41,2.27-.41,3.4,0-.21.52-.31,1.03-.41,1.65h0v.41h0c0,2.47.52,5.46,1.34,7.93,1.65,2.27,4.02-1.13,5.87-1.13,3.09.62,1.55,4.74,1.55,6.9,1.96,6.39,3.71,13.18,1.13,19.78,2.27,2.27,3.81,5.46,4.12,8.65-1.34.62-2.27,2.06-2.16,3.61-4.02,1.55-3.81,7.31-2.68,10.82.93,0,1.85-.41,2.58-1.03l1.03,1.85c-1.03,1.55-3.91,2.16-1.44,4.22,1.55.93-.21,2.06,0,3.3,1.34,2.47,3.5-2.68,4.74.93.21,1.65-8.03,2.88-4.94,4.64,1.03.1,1.65,1.24.82,1.96-1.44,1.44.93,3.61,2.37,4.02,2.06-.1,2.68-.41,3.4,2.06-.93.21-1.44.72-1.13,1.75,2.58.62,3.19.31,3.4,3.4-1.34.31-2.06,1.44-.72,2.68.93.82,2.68,0,3.4,1.13.82,1.65-1.24,4.84,2.06,4.43,0,.93-.41,1.75-.52,2.58,12.57,3.19,21.63,9.79,35.64,11.43,17,2.58,34.4,4.22,50.68,5.05h0c8.55.21,17.2-.41,24.41-2.06-.21-.31-.21-.52-.1-.93h0c.31-1.44,1.65-4.12,2.47-4.84,1.96,1.85,2.68,3.09,0,2.78-.82,1.65,3.61,2.99.41,3.71-.1,2.58,3.19.93,4.74.52,2.47-.41,2.88,1.65,4.74,2.47,2.27.93,15.24,2.27,12.05-3.19.72-1.03,1.55-.62,2.47-.72.72,0,1.03-.62,1.03-1.44.21-3.19,5.56-.82,7.83-.62,5.46-.31-.82,4.33,7.21,3.91,1.44,1.85.62,4.94,2.37,6.39,1.34.62.31,2.06,1.34,2.88,4.43.52,9.58-.72,14.11-1.75,1.65-.72,1.75-.21,2.88.62,3.61,2.88,5.87,5.25,1.55,5.77.31,4.12-3.3-.93-4.84,1.34-.93,1.13.31,2.06.62,2.99,0,2.47-.31,5.15-1.65,7.31-1.55,1.75-1.03,3.91-1.24,5.87-.41,1.55-2.37,2.68-1.96,4.43,3.91.82,4.12-4.22,7.11-5.25,1.55-.41,2.78.62,4.43-.31,1.65-1.13,2.78-1.85,2.16-3.19,2.47-1.24,3.5-4.53-.21-4.12-.1-1.55,1.55-2.47,2.58-3.5.82-.82,1.24-2.27,2.27-2.78,1.55-.82,3.19.82,4.84.41.21-.72.72-1.75-.1-2.16.21-1.13,1.44-1.55,2.27-2.16,1.44-1.34,1.65-3.19,3.3-4.43,2.27-1.44,2.06-5.87,5.46-5.25h.52c1.55,0,2.16-1.24,3.3-1.85,2.16-.93,4.74-1.34,6.18-3.61,1.24-1.34,2.37,0,3.3-1.44,1.65-3.61-.31-8.14.62-12.15,0-1.75.1-3.4,2.06-3.71,1.34.52,2.37-1.44,3.5-1.44,1.75.93,2.99,3.09,3.91,4.94,1.24,2.68,3.61,6.49,7,5.97,1.65-.62,1.13-1.75,1.44-2.88.41-1.75,1.55-3.09,1.96-4.94,1.44-1.85,5.36-6.39.41-5.56l-.41.21h0Z"></path><path class="cls-1" d="M125.75,23.33c1.24.62.31.82-.41,1.24-.82,1.75,2.06,2.27,2.68,3.61.62.52,1.85.72,1.55,1.75-2.47.82-2.06,2.06-.52,3.61.21.93-.62,2.27.82,2.68,1.44.41,1.24-2.58,2.47-2.68.62,0,1.13.62,1.75.21,1.75-1.03-1.03-2.68.62-3.4.41-.21.93-.52,1.13-1.34.21-1.65-1.13-1.65-1.85-2.47-.72-1.03-.52-2.37-1.44-3.3-.93-.41-5.56-7.62-5.56-5.87-1.44,1.03-1.85,2.58-.1,3.61-1.34.21-3.19,1.55-1.24,2.37h.1Z"></path><path class="cls-1" d="M129.67,13.96c1.75,0,.72,1.24.82,2.16.52,1.03,1.44,0,2.06.41.41.41.31,1.55-.31,1.65,1.34,1.65,2.58-.31,3.61-1.03.41,0,0,1.24.52,1.44.72.52,2.06-.1,2.27-.93,2.06-.21-.82-4.22,1.44-4.22,1.55.41.21,2.78,3.3,1.65,1.75,3.71-6.9,5.56-4.22,8.24-1.55.31-3.61-1.96-4.53.41-1.13,2.99,7,4.22,6.28,6.7-.31.52-1.96.31-2.47.52-1.03.31-2.16,2.06-2.06,2.78.41,1.03,2.47,1.24,2.88,2.37-.41,3.4,2.99,1.34,2.99,3.5,1.55-.21,1.55,2.16-.1,1.44-2.37,0-3.61-3.09-5.87-2.37-.1.93.41,1.55,1.03,2.16,2.37,2.37-2.58,1.44-1.55,4.64,1.13,0,1.55,1.24,2.58,1.44,1.44.31,2.06-1.55,3.19-1.75,2.47,1.13,2.99-1.96,4.94-.72,2.06,3.09,5.05.52,3.81-2.47-1.75-2.06-4.94.41-5.46-3.3-.1-1.85,2.47.82,3.4,0,1.03-.41.72-2.06,0-2.27-1.65-1.03.72-1.44,1.44-2.06.62-.82.62-1.75,1.44-2.37.52-1.55-.41-1.44-1.13-2.16.41-1.24-.93-1.24-1.65-1.44-1.85-.72-.41-1.96-.1-3.19-.52-1.44.21-2.58,0-4.02,5.46,1.96,1.34-5.46,2.99-7.93.62-1.24,1.55-2.47,1.24-4.02-2.37.72-1.75,2.78-3.5-.31,1.44-1.85,3.4-2.99,2.58-5.97-3.91-.21-.62-4.12-6.08-.21,0,.62-.62.72-1.24.72.82-3.71-4.33-1.44-5.15.31.21,0,.52.21.62.31-1.96-.72-4.02.52-4.12,2.78-2.37.21-1.24,1.65-.31,2.78-.82,0-1.24-.93-2.06-1.03-.52,0-1.65,1.03-1.85,1.44-.31.52,0,1.44-.62,1.75-.52.21-1.34-.31-1.75,0-.93.93,0,2.27,1.13,2.16h-.41,0Z"></path><path class="cls-1" d="M8.64,170.63c-.72-.21-2.68,3.09-2.78,1.13h-.72c.21-.41,1.03-1.13.93-1.55-.41-.62-1.03-1.65-2.06-1.34-1.24.72-1.13,2.27-.82,3.4-.82,1.34,0,2.27,1.44,2.06.52,2.47,4.53-2.58,3.91-3.71h.1Z"></path><path class="cls-1" d="M5.86,176.81c-.21-.21-.21-.62-.72-.62-2.88-.72-.31,2.68-.82,4.02-.41,2.88,1.55,1.75,1.03-.62-.41-1.24,1.34-1.85.41-2.88h0l.1.1Z"></path><path class="cls-1" d="M23.88,212.65c-2.78-3.4-4.33-7.31-5.87-11.33-1.13-1.03-2.16-1.65-3.3-2.58-1.24-1.75-4.53-.1-1.44.93.62.72-1.34.93-.93,1.85.52,1.24,2.16,0,2.78.93.93,1.34,1.65,1.65.62,1.75-1.85.21-.93,1.65.41,1.85,1.03.93,1.55,2.78,1.85,4.12-.21,1.03-.93,1.96.31,2.99,5.36.82,1.55,3.4,4.84,5.25,4.64,3.19,2.78-4.33.72-5.87h0v.1Z"></path><path class="cls-1" d="M278.51,206.99c-1.85.41-3.81,1.96-4.84,3.61-1.55,0-3.19.21-4.64.62-2.16,0-2.06,2.06-1.75,3.71,1.34.41,3.3-2.27,4.22-1.03.62,1.03-.82,1.96-1.65,2.27-3.61,1.96-5.56,4.64-4.22,8.65-1.75,2.99,1.34,5.87,4.33,4.33,1.44-.72,1.55-1.96,1.13-3.19-.52-1.65.1-3.19,0-4.84-.31-2.27,2.58-.82,3.19-2.99,1.85-3.4,8.55-7,4.22-11.02h0v-.1Z"></path><path class="cls-1" d="M282.63,199.88c-.93.1-1.13,1.65-2.06,1.65-1.96,0,.72-5.05-1.34-4.74-1.55,0-2.37,1.65-1.44,2.68.21,1.03-.82,2.16-.62,3.3.31,1.24.72,2.99,2.27,3.19,1.44,0,1.96-1.65,2.58-2.68.93-.72,3.3-3.4.62-3.5h0v.1Z"></path><path class="cls-1" d="M297.56,175.47c1.96-.72.72-2.37-.31-3.3-.52-1.03.31-2.58-.1-3.71-1.24.21-1.96,1.44-2.47,2.47-1.65-.41-.62-3.19-1.55-4.22-2.99-2.58-4.43,4.53-4.43,6.18-.62.52-1.65-.31-1.55-.93,0-.93-1.34-.82-1.85-.93-.52-.52,0-1.75-.62-2.27-.72-.82-2.16.1-2.47.82.21,3.5-1.13,3.3-1.03-1.03-.21-1.96.62-4.53-.41-6.28,0,0-.31-1.65-1.03-2.27-3.4-1.85-1.75,8.24-1.13,9.79-.1,1.85-.72,3.91.62,5.56.21.82-.72,1.24-1.03,1.96-.72,1.85,2.88,1.75,1.03,3.61-1.24,1.34-.52,2.37.31,3.5.72,1.34,0,2.27.1,3.5,1.13,4.64,5.25-1.34,6.39-3.09,1.34-1.96,3.81-1.34,5.56-2.58,1.13-1.13,2.37-2.47,3.91-3.09,3.91-1.13.62-2.88,1.96-3.71h.1Z"></path><path class="cls-1" d="M304.98,176.81c-.21-1.13-1.03-2.47-1.85-2.78-.82-1.65-2.06.52-2.88,1.03-1.13-.21-1.85.52-1.65,1.75.21.82,1.34.52,1.75,1.03-.62,2.99,1.85,2.27,2.68.31.41,0,.82.52,1.13.93.82-.41,1.13-1.24.82-2.37h0v.1Z"></path><path class="cls-1" d="M296.33,181.34c-1.75-.72-1.96,1.24-2.06,2.47-.31.52-.72.41-.82,1.24.52,4.02,4.74-2.06,2.88-3.71h0Z"></path><path class="cls-1" d="M171.49,128.4c1.65-.72,1.75-3.71-.31-4.12-.82,0-2.27,2.37-2.99,1.75-2.88-6.7-3.19-2.78-7.21-5.97-.72-1.03-1.65-1.75-2.68-.72-.72-.93-.82-4.02-2.58-2.78.41,2.58,0,5.36.93,7.93-.62,1.34-.82,4.02,0,5.05,1.55.31,2.16-.72,2.16,1.55s1.13,1.96,1.96,1.55c1.03-1.13,1.13-3.3,2.06-4.64.1-.52.41-.82.93-1.03.62,0,.93-1.55,1.24-1.85,1.65.31,1.24,2.58,2.58,3.3.72.41,1.03,0,1.65,0,.62-.1,1.55.31,2.16,0h.1Z"></path><path class="cls-1" d="M169.94,134.06c.72-2.58-3.91-.72-2.99,1.03-1.75.1-2.58,2.88-.41,3.19,1.03.1,3.09-1.24,2.16-2.37.21-.52,1.13-1.13,1.24-1.75h0v-.1Z"></path><path class="cls-1" d="M177.05,138.08c1.75,1.03,2.16-3.5,1.44-3.91-1.75-.72-3.71,3.4-1.44,3.91Z"></path><path class="cls-1" d="M151.81,63.5c-.41-.31-.72-.82-1.03-1.13-7.52,4.53-.21,12.88-.82,19.06-1.75,0-.72-1.65-1.24-2.58-.93-1.03-1.03-3.19-2.68-3.5-1.55-.31-.41-8.65-1.85-11.02-3.19,0-5.15,3.3-4.33,6.28.31,2.78-.93,5.87-1.03,8.76,1.24,2.88,5.25.31,6.18,3.61-.31.21-.72.31-1.24.31-2.47,0-1.24,2.27.41,3.09,1.44,1.34,2.16.62,3.5,0,.62-.21.52,0,1.03.31,1.75,1.85,5.25,1.44,7.52.52-1.13-2.37.52-1.34,1.85-1.03,2.47.82,6.08-1.03,4.12-4.02-.62-.72.62-2.27,1.03-.72,1.55,3.3,4.12,4.12,7.21,4.74,1.55,3.09,5.56,3.61,8.34,4.84.82.82-.1,2.47.82,3.19.62.52,1.55,0,2.06.52.62,2.88,2.68,6.08,1.24,9.06-.72,1.34-.82,1.55,0,3.09.62.93,1.85,2.47,1.75,3.4-1.34,3.09-8.76.52-8.55,4.84-.1,2.06,1.65,3.91,3.3,4.43,4.12,1.24,3.19-2.88,5.36-4.02,2.58.72,5.36-.72,7.21,1.96,2.78,4.02,2.37,2.47,6.18,2.16,1.44,1.44,3.61,1.03,5.46,1.55,2.88.41,8.76,2.27,10.82-.82,0-1.44-1.96-1.34-2.99-1.13-1.75-.31-3.3-1.03-4.64-2.06-4.33-.21-4.22-4.94.52-2.88,2.06.72,9.79,1.96,6.7-2.06-1.44-1.13-.82-2.99-2.06-4.22-5.15-2.88-11.64-4.43-15.97-8.96.1-.93,1.03,0,1.65-.31,2.27-.31-.41-2.27.52-3.3,2.58.82,3.4.31,5.36-1.55,2.06,7,10.3,5.56,5.67,1.75-.21-1.34,1.24-1.03,1.75-1.85.72-.93,0-3.19-1.44-3.09.82-6.08-2.99-1.03-5.97-2.27-1.85-.72-2.37-2.47-4.84-1.75-3.81,1.03-7.11-1.55-10.4-3.19-.93-.62-.93-1.65-1.44-2.58-.52-.82-1.75-1.65-1.13-2.68.82-5.36-5.25,1.24-6.59-4.74-2.16-.21-5.87,3.5-6.9.21-.31-.72-.62-1.44-1.85-1.75-.72-.21-1.13,0-1.55,0-1.75,0-1.85-4.33-4.74-4.22-7.31-1.24-2.16,5.15-7.11,4.74-.82-.21-1.34,0-1.55.93-.41-2.88-2.78-5.25-2.99-8.14,0-.82-.41-1.03-1.13-1.55h.52v-.21Z"></path><path class="cls-1" d="M156.45,66.59c1.24,1.55,2.37,0,2.99-1.03,6.08-.62,1.96-3.71-1.65-2.68-1.34.93-3.09-1.13-3.71.52.52.93,1.55,2.47,2.47,3.19h-.1Z"></path><path class="cls-1" d="M173.86,99.56c.62.93.72.72,1.24,2.06.21.62,0,1.65.62,2.06,2.47.82,3.09-2.37,2.68-4.74-.72-7.93-8.03-4.02-4.53.72h0v-.1Z"></path><path class="cls-1" d="M116.17,92.24c4.12-1.65-.72-5.46-2.37-7.21-1.85-4.74-1.75-11.43-5.67-15.24h-.31s-.1.21,0,.31h0c-1.65.31-1.03,2.68-.93,3.81.72,3.4-2.99,7.11-2.68,1.03-.21-1.65.1-3.71-1.65-4.02-2.99,1.55,1.96,4.12-4.53,3.5-.52-1.13.52-2.06-.41-3.09-1.44-1.85-3.4,1.13-4.84-.41-.62-.72.72-2.58.1-3.19-.93-.62-7.93,3.61-8.14,4.84-.21.93.72,2.06.41,2.88-2.68,3.3,2.58,2.58,4.22,4.12-2.78.72-6.9.21-3.3,4.12,1.55,2.68,6.18,0,8.55,2.06,4.33,4.12-9.17-.93-10.4.93h.21c-1.34,1.34.62,2.88,1.65,3.71.62.82.41,1.44,1.55,1.96,1.34.72,3.5.31,3.71,2.27-2.88,5.87,7.11,5.05,9.68,3.4,1.55-.82,1.96-3.3,3.5-3.81,2.47-.72,2.47,1.34,3.5,2.68,1.13,1.55,1.55.52,2.88.72,2.16,1.96,3.4,1.03,5.25-.93,2.47-1.55-3.61-3.81-.21-4.74l.21.31h0Z"></path><path class="cls-1" d="M106.29,99.25c-1.85-.21-6.28,1.55-6.59,3.71,1.24,1.24,2.99,0,4.22-.72,1.34-.31,5.46-2.37,2.37-2.99h0Z"></path><path class="cls-1" d="M124.11,93.79c-.52,1.96-4.84,3.19-2.27,4.94,4.64,3.4,12.26,4.74,5.97-3.61-.52-2.58-2.47-3.61-3.61-1.24h-.1v-.1Z"></path><path class="cls-1" d="M127.5,78.13c.72-1.75-1.75-2.58-2.16-4.02,0-2.27.41-5.87-1.55-7.93-1.65-.41-3.09,1.03-4.64,1.34-.52,1.96,2.27,3.3,1.44,5.25-.62,1.34-2.27,1.03-3.3,0-2.37,3.5,2.78,3.61,3.4,6.39,2.06,5.46,4.43,1.55,6.9-1.03h-.1Z"></path><path class="cls-1" d="M131.52,73.29c3.19-.82,8.45-9.79,2.06-8.96-1.85-.31-8.76.41-4.33,3.4-.62,1.65-1.03,2.99-.41,4.84.41,1.44-.31,4.33,1.65,4.64.82-1.13-.41-3.09,1.03-3.81h0v-.1Z"></path><path class="cls-1" d="M148.31,50.01c-3.09,1.24-5.56,3.19-9.17,2.16-.82,0-4.02-.72-3.61-2.16.1,0,.41-.41.31-.82,0-.41-.52-.82-.1-1.13-2.78-2.47-7.93-2.27-3.5,2.27.21.93-.41,1.85-.41,2.78,0,1.75,1.55,3.09,1.13,4.84-.93,3.4,4.43,2.68,5.46.93,2.27.62,6.49,1.34,7.73-1.34.1-.31.21-.41,1.24,0,5.46,3.09,6.28-8.03.72-7.42h.21v-.1Z"></path><path class="cls-1" d="M71.99,68.76c.72.41.93,1.13,1.03,1.85.21,1.03,1.24,2.06,1.44,3.09.1,1.03-.72,2.47,0,3.3.82.93,1.65.31,2.06-.62s1.03-1.13,1.85-.93c4.43.31,1.13-5.46,6.18-6.18,1.34,0,2.27-.93,3.3-1.65,1.24-.82,3.81-1.75,4.43-3.09.52-1.13-1.03-5.36-2.16-5.67-.82,0-1.24,1.03-1.85.93-3.4-3.3-1.65-6.08-8.14-4.22,1.13,5.36-1.55,4.74-4.94,7.31-.82,1.44-5.25,4.43-3.3,5.87h.1Z"></path><path class="cls-1" d="M86.82,46.92c-.21,2.27,3.4,1.85,4.02.41.21-.72-.31-1.24-.31-1.85,1.44-.52,3.71,0,4.33-1.65.21-.41.31-.62.62-.62.1.93-.31,1.85-.62,2.88,2.68.41,3.19-1.55,2.06-3.4,1.13,0,1.85-1.03,2.88-1.44.31-3.91-4.02.62-3.61-2.16-3.91,1.03-7.31,3.71-10.51,6.18.72.21,1.03.82,1.03,1.55h.1v.1Z"></path><path class="cls-1" d="M98.87,47.44c-.52,1.44-2.99.52-3.3,2.37-.41,1.24,1.34,1.44.93,2.58-.41,1.03-1.34-.41-2.06.31-.62.62,0,1.65.62,1.96,1.34.62,2.37-.93,3.5-.93,0,2.58,2.37.93,3.71,1.85-1.44,3.4-4.53.52-5.46,3.81,2.16-.31,4.64-.41,6.59-1.03,1.55-1.13,1.85-3.91,0-4.84-.52-.62-.1-.62-.21-1.24,0-.93-.52-1.13-1.03-1.75-1.03-.93-1.96-2.68-3.3-2.99h0v-.1Z"></path><path class="cls-1" d="M107.83,45.89h0c-3.5.72.82,4.84-.52,6.59-2.58,1.34-.52,3.09-.72,5.36,3.3.41,4.74,0,4.64-3.71,1.65,0,1.75-2.37,1.03-3.4h-1.75c0,.72.21,1.85-.82,1.44-.1-1.44,0-3.61-1.44-4.33-.31-.52.62-1.13.52-1.75-.31-.21-.62-.21-.82-.31h-.1v.1Z"></path><path class="cls-1" d="M119.99,47.74h0c-.72.62-.93,2.78-.1,3.3-.52.41-1.44.21-2.06,0-.52,1.24-.21,3.19,1.44,2.37.41,0,.62-.21.82,0,.21,2.58-.93,3.5,2.68,3.61,1.55-2.47,1.44-11.64-2.78-9.48h0v.21Z"></path><path class="cls-1" d="M127.92,60.41c.93,0,.72-.52,1.24-.93.62-.52,1.03-.31,1.44-1.24,1.03-2.99-2.78-3.81-4.94-2.99-.52,1.65-1.24,3.81.93,4.12.21.62.82,1.03,1.34,1.03h0Z"></path><path class="cls-1" d="M126.47,41.98c.82.41,1.85-.31,2.68-.52.52,0,1.13.31,1.55-.31.72-.93-.93-2.16-1.65-1.85-1.24-.31-4.22,1.24-2.58,2.68Z"></path><path class="cls-1" d="M125.14,45.99c0,.93,1.55,1.44,1.65,2.37,1.85,4.02,3.61-3.5,1.03-3.81-.82-.52-2.58.31-2.68,1.34h0v.1Z"></path><path class="cls-1" d="M114.94,31.57c2.06.82.21,3.19-1.03,3.5-.21,1.65,3.3,1.34,4.33,1.85,1.03.72,1.34,2.27,2.68,2.68,1.44-.72-3.81-12.36-4.74-10.61-2.58-.21-3.19,1.75-1.24,2.58Z"></path><path class="cls-1" d="M123.69,36.72c.72,1.44,1.13,1.55,2.68,1.24.62-1.96-.82-4.02-2.16-4.84-.52-1.65-2.99,1.44-.41,3.61h-.1Z"></path><path class="cls-1" d="M106.8,35.59c1.65,0,1.85-1.55,1.34-2.68-.21,0-.41,0-.62-.21-2.78,0-4.02,2.47-.72,2.99h0v-.1Z"></path><path class="cls-1" d="M104.02,40.95c2.06,1.24,4.22-1.13,3.71-3.19-1.55-2.06-6.18,1.34-3.71,3.19Z"></path><path class="cls-1" d="M113.8,44.04c1.44-.62.93-3.4-.41-3.81-2.37,0-.1,3.19.41,3.81Z"></path><polygon class="cls-2" points="31.71 210.59 32.64 208.23 33.26 210.59 35.83 210.8 33.67 212.14 34.39 214.61 32.43 212.96 30.27 214.41 31.2 212.04 29.24 210.39 31.71 210.59"></polygon></svg> 