<?xml version="1.0" encoding="UTF-8"?> <!-- Generator: Adobe Illustrator 25.0.0, SVG Export Plug-In . SVG Version: 6.00 Build 0) --> <svg xmlns="http://www.w3.org/2000/svg" xmlns:xlink="http://www.w3.org/1999/xlink" version="1.1" id="Layer_1" x="0px" y="0px" viewBox="0 0 100.8 100.8" style="enable-background:new 0 0 100.8 100.8;" xml:space="preserve"> <style type="text/css"> .st0{fill:#1B3B68;} </style> <g id="background"> </g> <g id="New_Art"> </g> <g id="Layer_3"> <path class="st0" d="M71.2,83.9H29.6c-1.8,0-3.3-1.5-3.3-3.3V20.2c0-1.8,1.5-3.3,3.3-3.3h41.5c1.8,0,3.3,1.5,3.3,3.3v60.5 C74.4,82.5,73,83.9,71.2,83.9z M29.6,18.9c-0.7,0-1.3,0.6-1.3,1.3v60.5c0,0.7,0.6,1.3,1.3,1.3h41.5c0.7,0,1.3-0.6,1.3-1.3V20.2 c0-0.7-0.6-1.3-1.3-1.3H29.6z"></path> <path class="st0" d="M67.6,55.5H33.2c-0.5,0-1-0.4-1-1s0.5-1,1-1h34.4c0.6,0,1,0.4,1,1S68.1,55.5,67.6,55.5z"></path> <path class="st0" d="M67.6,65.8H33.2c-0.5,0-1-0.4-1-1s0.5-1,1-1h34.4c0.6,0,1,0.4,1,1S68.1,65.8,67.6,65.8z"></path> <path class="st0" d="M67.6,76.1H33.2c-0.5,0-1-0.4-1-1s0.5-1,1-1h34.4c0.6,0,1,0.4,1,1S68.1,76.1,67.6,76.1z"></path> <path class="st0" d="M52.8,46.3c-0.3,0-0.6-0.1-0.8-0.3l-1.6-1.2l-1.6,1.2c-0.4,0.3-1,0.4-1.5,0.1s-0.8-0.8-0.8-1.3v-8.6 c0-0.5,0.4-1,1-1s1,0.5,1,1v7.5l1.9-1.4l1.9,1.4v-7.5c0-0.5,0.4-1,1-1s1,0.5,1,1v8.6c0,0.6-0.3,1.1-0.8,1.3 C53.3,46.3,53.1,46.3,52.8,46.3z"></path> <path class="st0" d="M48.7,38.7c-0.5,0-0.9-0.2-1.2-0.7l-0.6-1L45.7,37c-0.8,0-1.3-0.6-1.4-1.4l-0.1-1.2l-1-0.6 c-0.6-0.4-0.8-1.2-0.5-1.9l0.5-1l-0.5-1c-0.3-0.7-0.1-1.5,0.5-1.9l1-0.6l0.1-1.2c0-0.8,0.6-1.3,1.4-1.4l1.2-0.1l0.6-1 c0.4-0.6,1.2-0.8,1.9-0.5l1,0.6l1-0.5c0.7-0.3,1.5-0.1,1.9,0.5l0.6,1l1.2,0.1c0.7,0,1.3,0.6,1.4,1.4l0.1,1.2l1,0.6 c0.6,0.4,0.8,1.2,0.5,1.9l-0.5,1l0.5,1c0.3,0.7,0.1,1.5-0.5,1.9l-1,0.6l-0.1,1.1c0,0.7-0.6,1.3-1.4,1.4L54,37l-0.6,1 c-0.4,0.6-1.2,0.8-1.9,0.5l-1-0.5l-1,0.5C49.1,38.6,48.9,38.7,48.7,38.7z M46.3,35l0.9,0c0.5,0,0.9,0.3,1.1,0.7l0.5,0.8l0.8-0.4 c0.4-0.2,0.9-0.2,1.3,0l0.8,0.4l0.5-0.8c0.2-0.4,0.7-0.6,1.1-0.7l1,0l0.1-1c0-0.5,0.3-0.9,0.7-1.1l0.8-0.5l-0.4-0.9 c-0.2-0.4-0.2-0.9,0-1.3l0.4-0.8l-0.8-0.5c-0.4-0.2-0.6-0.7-0.7-1.1l-0.1-1l-1,0c-0.5,0-0.9-0.3-1.1-0.7l-0.5-0.8L51,25.7 c-0.4,0.2-0.9,0.2-1.3,0l-0.8-0.4L48.3,26c-0.2,0.4-0.7,0.6-1.2,0.7l-0.9,0l-0.1,1c0,0.5-0.3,0.9-0.7,1.1l-0.8,0.5l0.4,0.8 c0.2,0.4,0.2,0.9,0,1.3l-0.4,0.9l0.8,0.5c0.4,0.2,0.6,0.7,0.7,1.1L46.3,35z M54.5,35.5L54.5,35.5L54.5,35.5z M46.3,35.5L46.3,35.5 L46.3,35.5z M55,26.8L55,26.8L55,26.8z M45.8,26.8L45.8,26.8C45.8,26.8,45.8,26.8,45.8,26.8z M54.5,26.2L54.5,26.2L54.5,26.2z M46.3,26.2L46.3,26.2L46.3,26.2z M47.1,24.7C47.1,24.7,47.1,24.7,47.1,24.7L47.1,24.7z M53.7,24.7L53.7,24.7L53.7,24.7z M50.2,23.9L50.2,23.9L50.2,23.9z M50.7,23.9L50.7,23.9L50.7,23.9z"></path> </g> </svg> 