<?xml version="1.0" encoding="UTF-8"?> <!-- Generator: Adobe Illustrator 25.0.0, SVG Export Plug-In . SVG Version: 6.00 Build 0) --> <svg xmlns="http://www.w3.org/2000/svg" xmlns:xlink="http://www.w3.org/1999/xlink" version="1.1" id="Layer_1" x="0px" y="0px" viewBox="0 0 100.8 100.8" style="enable-background:new 0 0 100.8 100.8;" xml:space="preserve"> <style type="text/css"> .st0{fill:#1B3B68;} </style> <g id="background"> </g> <g id="New_Art"> </g> <g id="Layer_3"> <g> <path class="st0" d="M62.6,27.8H38.2c-1.2,0-2.2-1-2.2-2.2v-7.6c0-1.2,1-2.2,2.2-2.2h24.3c1.2,0,2.2,1,2.2,2.2v7.6 C64.8,26.8,63.8,27.8,62.6,27.8z M38.2,17.7c-0.1,0-0.2,0.1-0.2,0.2v7.6c0,0.1,0.1,0.2,0.2,0.2h24.3c0.1,0,0.2-0.1,0.2-0.2v-7.6 c0-0.1-0.1-0.2-0.2-0.2H38.2z"></path> <path class="st0" d="M71.2,85.1H29.6c-3.3,0-6.1-2.7-6.1-6.1V27.8c0-3.3,2.7-6.1,6.1-6.1H37v2h-7.4c-2.2,0-4.1,1.8-4.1,4.1v51.2 c0,2.2,1.8,4.1,4.1,4.1h41.6c2.2,0,4.1-1.8,4.1-4.1V27.8c0-2.2-1.8-4.1-4.1-4.1h-7.4v-2h7.4c3.3,0,6.1,2.7,6.1,6.1v51.2 C77.3,82.4,74.6,85.1,71.2,85.1z"></path> <g> <path class="st0" d="M34.9,43.3l-5.2-4.7c-0.4-0.4-0.5-1-0.1-1.4s1-0.5,1.4-0.1l3.8,3.4l5.9-5.9c0.4-0.4,1-0.4,1.4,0 c0.4,0.4,0.4,1,0,1.4L34.9,43.3z"></path> <path class="st0" d="M70.5,40.8H44.7c-0.6,0-1-0.5-1-1s0.4-1,1-1h25.7c0.6,0,1,0.5,1,1S71,40.8,70.5,40.8z"></path> </g> <g> <path class="st0" d="M34.9,58.1l-5.2-4.7c-0.4-0.4-0.5-1-0.1-1.4s1-0.4,1.4-0.1l3.8,3.4l5.9-5.9c0.4-0.4,1-0.4,1.4,0 c0.4,0.4,0.4,1,0,1.4L34.9,58.1z"></path> <path class="st0" d="M70.5,55.5H44.7c-0.6,0-1-0.4-1-1s0.4-1,1-1h25.7c0.6,0,1,0.4,1,1S71,55.5,70.5,55.5z"></path> </g> <g> <path class="st0" d="M34.9,71.5l-5.2-4.7c-0.4-0.4-0.5-1-0.1-1.4s1-0.4,1.4-0.1l3.8,3.4l5.9-5.9c0.4-0.4,1-0.4,1.4,0 c0.4,0.4,0.4,1,0,1.4L34.9,71.5z"></path> <path class="st0" d="M70.5,68.9H44.7c-0.6,0-1-0.4-1-1s0.4-1,1-1h25.7c0.6,0,1,0.4,1,1S71,68.9,70.5,68.9z"></path> </g> </g> </g> </svg> 