<?xml version="1.0" encoding="UTF-8"?> <!-- Generator: Adobe Illustrator 25.0.0, SVG Export Plug-In . SVG Version: 6.00 Build 0) --> <svg xmlns="http://www.w3.org/2000/svg" xmlns:xlink="http://www.w3.org/1999/xlink" version="1.1" id="Layer_1" x="0px" y="0px" viewBox="0 0 100.8 100.8" style="enable-background:new 0 0 100.8 100.8;" xml:space="preserve"> <style type="text/css"> .st0{fill:#1B3B68;} </style> <g id="background"> </g> <g id="New_Art"> </g> <g id="Layer_3"> <g> <g> <path class="st0" d="M34.5,79c-0.3,0-0.5-0.1-0.7-0.3c-0.4-0.4-0.4-1,0-1.4c3.5-3.5,8.2-5.5,13.2-5.5l21.2,0 c0.6,0.1,1.2-0.1,1.7-0.3L88.8,60c0.8-0.4,1.3-1.2,1.4-2.1c0.1-0.9-0.1-1.7-0.7-2.4c-0.9-1-2.4-1.2-3.7-0.5l-13.7,8.4 c-0.5,0.3-1.1,0.1-1.4-0.3s-0.1-1.1,0.3-1.4l13.7-8.4c2.1-1.2,4.7-0.8,6.2,0.9c1,1.1,1.4,2.6,1.2,4c-0.2,1.5-1.1,2.7-2.4,3.5 L71,73.1c-0.9,0.5-1.8,0.7-2.8,0.6c-0.1,0-0.2,0-0.3,0H47c-4.4,0-8.6,1.7-11.8,4.9C35,78.9,34.8,79,34.5,79z"></path> <path class="st0" d="M67.8,67.1H46c-0.6,0-1-0.4-1-1s0.4-1,1-1h21.8c1.6,0,2.9-1.3,2.9-2.9s-1.3-2.9-2.9-2.9H55.2 c-2.4,0-4.7-0.3-7-1.1l-2.4-0.7c-2.1-0.6-4.2-1-6.4-1h-0.7c-5.8,0-11.3,2.3-15.4,6.4c-0.4,0.4-1,0.4-1.4,0s-0.4-1,0-1.4 c4.5-4.5,10.5-7,16.8-7h0.7c2.4,0,4.7,0.3,7,1.1l2.4,0.7c2.1,0.6,4.2,1,6.4,1h12.6c2.7,0,4.9,2.2,4.9,4.9 C72.7,64.9,70.5,67.1,67.8,67.1z"></path> <path class="st0" d="M27.7,90c-0.2,0-0.4,0-0.6,0c-1.1-0.2-2.1-0.7-2.8-1.6l-15-19.7c-0.7-0.9-1-2-0.8-3.1 c0.1-1.1,0.7-2.1,1.6-2.8l5.5-4.2c0.9-0.7,2-1,3.1-0.8c1.1,0.2,2.1,0.7,2.8,1.6l15,19.7c0.7,0.9,1,2,0.8,3.1 c-0.2,1.1-0.7,2.1-1.6,2.8l-5.5,4.2C29.5,89.7,28.7,90,27.7,90z M18.3,59.7c-0.5,0-0.9,0.2-1.3,0.4l-5.5,4.2 c-0.5,0.3-0.8,0.9-0.8,1.5c-0.1,0.6,0.1,1.2,0.4,1.6l15,19.7c0.3,0.5,0.9,0.8,1.5,0.8c0.6,0.1,1.2-0.1,1.6-0.4l5.5-4.2 c0.5-0.3,0.8-0.9,0.8-1.5c0.1-0.6-0.1-1.2-0.4-1.6L20,60.6c-0.3-0.5-0.9-0.8-1.5-0.8C18.5,59.7,18.4,59.7,18.3,59.7z"></path> </g> <g> <g> <path class="st0" d="M55,40.6c-0.6,0-1-0.5-1-1V18.8c0-0.5,0.4-1,1-1s1,0.5,1,1v20.8C56,40.1,55.5,40.6,55,40.6z"></path> </g> <path class="st0" d="M55,37c-2.4,0-4.4-2-4.4-4.4c0-0.5,0.4-1,1-1s1,0.5,1,1c0,1.3,1.1,2.4,2.4,2.4s2.4-1.1,2.4-2.4 c0-1.8-2-2.4-2.6-2.5c-1.1-0.3-4.2-1.2-4.2-4.4c0-2.4,2-4.4,4.4-4.4s4.4,2,4.4,4.4c0,0.5-0.4,1-1,1s-1-0.5-1-1 c0-1.3-1.1-2.4-2.4-2.4s-2.4,1.1-2.4,2.4c0,0.8,0.3,1.8,2.7,2.4c2.5,0.5,4.1,2.2,4.1,4.4C59.4,35,57.4,37,55,37z"></path> </g> <path class="st0" d="M55,46.9c-9.9,0-18-8.1-18-18.1s8.1-18,18-18S73,18.9,73,28.9S64.9,46.9,55,46.9z M55,12.8 c-8.8,0-16,7.2-16,16s7.2,16.1,16,16.1S71,37.7,71,28.9S63.8,12.8,55,12.8z"></path> </g> </g> </svg> 