<?xml version="1.0" encoding="UTF-8"?> <svg xmlns="http://www.w3.org/2000/svg" width="122.658" height="122.679" viewBox="0 0 122.658 122.679"><g id="_3339051_business_tools_money_time_clock_schedule_icon-01" data-name="3339051_business tools_money_time_clock_schedule_icon-01" transform="translate(0.789 0.75)"><path id="Path_1349" data-name="Path 1349" d="M23.136,20.185,21.7,18.756a2.015,2.015,0,1,0-2.848,2.851l1.429,1.429a2.016,2.016,0,1,0,2.851-2.851ZM20.275,80.14,18.846,81.57a2.014,2.014,0,0,0,2.848,2.848l1.432-1.429a2.015,2.015,0,1,0-2.851-2.848ZM81.66,23.633a2.027,2.027,0,0,0,1.429-.587l1.429-1.432a2.014,2.014,0,1,0-2.848-2.848L80.238,20.2a2.019,2.019,0,0,0,1.432,3.448ZM7.269,49.573a2.019,2.019,0,1,0,0,4.038H9.288a2.019,2.019,0,1,0,0-4.038ZM96.1,53.611a2.019,2.019,0,1,0,0-4.038H94.076a2.019,2.019,0,1,0,0,4.038ZM49.663,93.986v2.019a2.019,2.019,0,0,0,4.038,0V93.986a2.019,2.019,0,1,0-4.038,0Zm2.019-82.77A2.02,2.02,0,0,0,53.7,9.2V7.179a2.019,2.019,0,0,0-4.038,0V9.2A2.02,2.02,0,0,0,51.682,11.216Zm0,44.413a4.038,4.038,0,1,1,4.038-4.038A4.038,4.038,0,0,1,51.682,55.63Zm8.075-4.038A8.073,8.073,0,0,0,53.7,43.8V23.329a2.019,2.019,0,0,0-4.038,0V43.8a8.06,8.06,0,0,0-5.774,5.771H29.475a2.019,2.019,0,1,0,0,4.038H43.89a8.06,8.06,0,0,0,15.868-2.019Z" transform="translate(8.857 8.729)" fill="#1b3a68" stroke="#1b3a68" stroke-width="1.5"></path><path id="Path_1350" data-name="Path 1350" d="M60.548,0a60.563,60.563,0,1,0,21.02,117.372,2.018,2.018,0,1,0-1.4-3.785,56.486,56.486,0,1,1,33.4-33.4,2.018,2.018,0,0,0,3.785,1.4A60.586,60.586,0,0,0,60.548,0Z" transform="translate(-0.009)" fill="#1b3a68" stroke="#1b3a68" stroke-width="1.5"></path><path id="Path_1351" data-name="Path 1351" d="M39.056,43.96A3.323,3.323,0,0,1,37.8,41.7a2.923,2.923,0,0,1,.673-2.229,5.978,5.978,0,0,1,2.6-1.766v7.822Zm8.075,11.4a3.282,3.282,0,0,1,1.252,2.261,2.914,2.914,0,0,1-.673,2.229A5.988,5.988,0,0,1,45.1,61.612V53.78l2.019,1.577Zm-2.019-21.87V31.269a2.019,2.019,0,0,0-4.038,0V33.5a10.122,10.122,0,0,0-5.688,3.365,6.921,6.921,0,0,0-1.6,5.257,7.343,7.343,0,0,0,2.8,5.025l4.49,3.5V61.623a6.053,6.053,0,0,1-4.038-5.688,2.019,2.019,0,1,0-4.038,0,10.12,10.12,0,0,0,8.075,9.895v1.777a2.019,2.019,0,0,0,4.038,0V65.83A10.122,10.122,0,0,0,50.8,62.466a6.977,6.977,0,0,0,1.6-5.257,7.343,7.343,0,0,0-2.8-5.025l-4.49-3.513V37.694a6.043,6.043,0,0,1,4.038,5.688,2.019,2.019,0,1,0,4.038,0A10.12,10.12,0,0,0,45.113,33.487Z" transform="translate(55.802 49.483)" fill="#1b3a68" stroke="#1b3a68" stroke-width="1.5"></path></g></svg> 