<?xml version="1.0" encoding="UTF-8"?> <svg xmlns="http://www.w3.org/2000/svg" width="118.272" height="128.541" viewBox="0 0 118.272 128.541"><g id="_2290849_document_done_excellent_list_note_icon-01" data-name="2290849_document_done_excellent_list_note_icon-01" transform="translate(2.51 2.51)"><path id="Path_1347" data-name="Path 1347" d="M69.3,18.746V47.394M134.4,26.5v51.36m-7.757-59.116A7.787,7.787,0,0,1,134.4,26.5M34.169,134.5V49.82L67.758,18.746h58.884M41.929,142.266a7.791,7.791,0,0,1-7.761-7.76m92.473,7.76H41.929M134.4,134.5a7.8,7.8,0,0,1-7.757,7.76" transform="translate(-34.168 -18.746)" fill="none" stroke="#1b3a68" stroke-linecap="round" stroke-linejoin="round" stroke-width="5"></path><path id="Path_1348" data-name="Path 1348" d="M146.4,116.746,129.6,135.1m-9.172-8.408L129.6,135.1m16.8-6.61a18.035,18.035,0,1,1-8.971-15.609m-91,34.17H101.3M46.426,121.226H97.642M46.426,95.409H120.9M87.243,56.744a1.945,1.945,0,0,1,1.85-2.013m-1.85,19.029V56.744m1.85,19.029a1.937,1.937,0,0,1-1.85-2.013m31.641,2.013H89.093m31.637-2.013a1.943,1.943,0,0,1-1.846,2.013m1.846-19.029V73.761M118.884,54.73a1.95,1.95,0,0,1,1.846,2.013M89.093,54.73h29.79M65.153,74.361H34.172M69.3,70.21a4.175,4.175,0,0,1-4.149,4.153" transform="translate(-34.171 -41.561)" fill="none" stroke="#1b3a68" stroke-linecap="round" stroke-linejoin="round" stroke-width="5"></path></g></svg> 