<?xml version="1.0" encoding="UTF-8"?> <svg xmlns="http://www.w3.org/2000/svg" id="_4552610_cogwheel_gear_laptop_setting_icon-01" data-name="4552610_cogwheel_gear_laptop_setting_icon-01" width="158.814" height="116.464" viewBox="0 0 158.814 116.464"><path id="Path_1354" data-name="Path 1354" d="M146.33,120.964H13.985A13.239,13.239,0,0,1,.75,107.729,2.648,2.648,0,0,1,3.4,105.082H61.629a2.647,2.647,0,0,1,0,5.294H6.51a7.946,7.946,0,0,0,7.475,5.294H146.33a7.918,7.918,0,0,0,7.475-5.294H98.685a2.647,2.647,0,1,1,0-5.294h58.232a2.648,2.648,0,0,1,2.647,2.647,13.239,13.239,0,0,1-13.234,13.235Zm0-21.175a2.648,2.648,0,0,1-2.647-2.647v-84.7a2.648,2.648,0,0,0-2.647-2.647H19.278a2.648,2.648,0,0,0-2.647,2.647v84.7a2.647,2.647,0,0,1-5.294,0v-84.7A7.944,7.944,0,0,1,19.278,4.5H141.036a7.944,7.944,0,0,1,7.941,7.941v84.7A2.648,2.648,0,0,1,146.33,99.789Z" transform="translate(-0.75 -4.5)" fill="#1b3a68"></path><path id="Path_1355" data-name="Path 1355" d="M46.1,65.03A18.528,18.528,0,1,1,64.631,46.5a2.647,2.647,0,0,1-5.294,0A13.235,13.235,0,1,0,48.693,59.49a2.627,2.627,0,0,1,3.12,2.1,2.677,2.677,0,0,1-2.1,3.113,17.729,17.729,0,0,1-3.614.36ZM43.484,80.912H48.75l1.461-6.67a2.639,2.639,0,0,1,1.983-2.012,25.818,25.818,0,0,0,7.835-3.254A2.63,2.63,0,0,1,62.867,69l5.738,3.7,3.72-3.72-3.67-5.767a2.653,2.653,0,0,1-.028-2.809,26.18,26.18,0,0,0,3.254-7.835A2.658,2.658,0,0,1,73.9,50.582l6.642-1.461V43.855L73.9,42.394a2.658,2.658,0,0,1-2.019-1.983,25.88,25.88,0,0,0-3.254-7.835,2.653,2.653,0,0,1,.028-2.809l3.67-5.738-3.72-3.72-5.738,3.67a2.653,2.653,0,0,1-2.809.028,26.931,26.931,0,0,0-7.835-3.254,2.658,2.658,0,0,1-1.983-2.019l-1.518-6.642H43.456l-1.461,6.67a2.639,2.639,0,0,1-1.983,2.012,25.819,25.819,0,0,0-7.835,3.254,2.639,2.639,0,0,1-2.809-.021l-5.738-3.67-3.72,3.72,3.67,5.738A2.639,2.639,0,0,1,23.6,32.6a25.626,25.626,0,0,0-3.247,7.835,2.658,2.658,0,0,1-2.019,1.983l-6.642,1.461v5.266l6.642,1.461a2.658,2.658,0,0,1,2.019,1.983A25.626,25.626,0,0,0,23.6,60.428a2.582,2.582,0,0,1-.021,2.809l-3.67,5.738,3.72,3.72,5.738-3.67A2.654,2.654,0,0,1,32.177,69a26.179,26.179,0,0,0,7.835,3.254,2.658,2.658,0,0,1,1.983,2.019l1.461,6.67Zm7.39,5.294H41.331a2.676,2.676,0,0,1-2.59-2.1l-1.574-7.164a30,30,0,0,1-6.31-2.626l-6.176,3.946a2.668,2.668,0,0,1-3.31-.36l-6.727-6.727a2.668,2.668,0,0,1-.36-3.31l3.946-6.176a31.684,31.684,0,0,1-2.619-6.31L8.439,53.807a2.651,2.651,0,0,1-2.068-2.59V41.731a2.651,2.651,0,0,1,2.068-2.59l7.143-1.574a32.691,32.691,0,0,1,2.619-6.31L14.255,25.08a2.678,2.678,0,0,1,.36-3.31l6.727-6.727a2.668,2.668,0,0,1,3.31-.36l6.176,3.946a31.007,31.007,0,0,1,6.31-2.619l1.574-7.171a2.682,2.682,0,0,1,2.59-2.1h9.571a2.647,2.647,0,0,1,2.59,2.1l1.574,7.171a31.683,31.683,0,0,1,6.31,2.619l6.176-3.946a2.668,2.668,0,0,1,3.31.36l6.727,6.727a2.668,2.668,0,0,1,.36,3.31l-3.946,6.176a31.684,31.684,0,0,1,2.619,6.31l7.171,1.574a2.651,2.651,0,0,1,2.068,2.59v9.515a2.651,2.651,0,0,1-2.068,2.59L76.6,55.41a31.683,31.683,0,0,1-2.619,6.31L77.922,67.9a2.668,2.668,0,0,1-.36,3.31l-6.727,6.727a2.668,2.668,0,0,1-3.31.36l-6.176-3.974a30.636,30.636,0,0,1-6.31,2.626l-1.574,7.164A2.676,2.676,0,0,1,50.874,86.206Z" transform="translate(33.304 9.083)" fill="#1b3a68"></path><path id="Path_1356" data-name="Path 1356" d="M18.794,16.2a2.647,2.647,0,1,1-2.647-2.647A2.647,2.647,0,0,1,18.794,16.2" transform="translate(76.495 50.359)" fill="#1b3a68"></path></svg> 