<?xml version="1.0" encoding="UTF-8"?> <!-- Generator: Adobe Illustrator 25.0.0, SVG Export Plug-In . SVG Version: 6.00 Build 0) --> <svg xmlns="http://www.w3.org/2000/svg" xmlns:xlink="http://www.w3.org/1999/xlink" version="1.1" id="Layer_1" x="0px" y="0px" viewBox="0 0 100.8 100.8" style="enable-background:new 0 0 100.8 100.8;" xml:space="preserve"> <style type="text/css"> .st0{fill:#1B3B68;} </style> <g id="background"> </g> <g id="New_Art"> </g> <g id="Layer_3"> <g> <path class="st0" d="M40.3,84.9H4.6c-1.5,0-2.8-1.2-2.8-2.8v-2.4c0-1.5,1.2-2.8,2.8-2.8h35.7c1.5,0,2.8,1.2,2.8,2.8v2.4 C43.1,83.7,41.8,84.9,40.3,84.9z M4.6,79c-0.4,0-0.8,0.3-0.8,0.8v2.4c0,0.4,0.3,0.8,0.8,0.8h35.7c0.4,0,0.8-0.3,0.8-0.8v-2.4 c0-0.4-0.3-0.8-0.8-0.8H4.6z"></path> <path class="st0" d="M40,78.9H5.6v-5.1c0-1.5,1.2-2.8,2.8-2.8h28.8c1.5,0,2.8,1.2,2.8,2.8L40,78.9L40,78.9z M7.6,76.9H38v-3.1 c0-0.4-0.3-0.8-0.8-0.8H8.4c-0.4,0-0.8,0.3-0.8,0.8V76.9z"></path> <g> <path class="st0" d="M30.1,68.6c-0.4,0-0.8-0.1-1.2-0.2l-17.6-7.2c-0.8-0.3-1.3-0.9-1.6-1.6s-0.3-1.6,0-2.3l2-4.9 c0.6-1.6,2.4-2.3,4-1.7l17.6,7.2c1.5,0.6,2.3,2.4,1.7,4l0,0l-2,4.9c-0.3,0.8-0.9,1.3-1.6,1.7C30.9,68.6,30.5,68.6,30.1,68.6z M14.5,52.5c-0.4,0-0.8,0.2-1,0.7l-2,4.9c-0.1,0.2-0.1,0.5,0,0.8c0.1,0.3,0.3,0.5,0.6,0.6l17.6,7.2c0.2,0.1,0.5,0.1,0.8,0 s0.5-0.3,0.6-0.6l2-4.9c0.2-0.5,0-1.1-0.6-1.3l-17.6-7.2C14.7,52.5,14.6,52.5,14.5,52.5z M34,61.5L34,61.5L34,61.5z"></path> <path class="st0" d="M44.3,34c-0.4,0-0.8-0.1-1.2-0.2l-17.6-7.2c-1.5-0.6-2.3-2.4-1.7-4l2-4.9c0.3-0.8,0.9-1.3,1.6-1.7 c0.8-0.3,1.6-0.3,2.3,0l17.6,7.2c0.8,0.3,1.3,0.9,1.7,1.6s0.3,1.6,0,2.3l-2,4.9C46.6,33.3,45.5,34,44.3,34z M28.6,17.9 c-0.1,0-0.3,0-0.4,0.1c-0.3,0.1-0.5,0.3-0.6,0.6l-2,4.9c-0.2,0.5,0,1.1,0.6,1.3L43.9,32c0.5,0.2,1.1,0,1.3-0.6l2-4.9 c0.1-0.2,0.1-0.5,0-0.8c-0.1-0.3-0.3-0.5-0.6-0.6L29,17.9C28.9,17.9,28.8,17.9,28.6,17.9z"></path> <path class="st0" d="M32.8,59.9l-18.2-7.4L26,24.6l18.2,7.4L32.8,59.9z M17.2,51.4l14.5,5.9l9.9-24.1l-14.5-5.9L17.2,51.4z"></path> <path class="st0" d="M90.3,75.5c-1.1,0-2.2-0.2-3.3-0.6L34.6,50.1l4.2-10.4l54.7,19.1c4.5,1.8,6.6,6.9,4.8,11.3l0,0 c-0.9,2.1-2.5,3.8-4.7,4.7C92.6,75.3,91.4,75.5,90.3,75.5z M37.2,49.1L87.8,73c1.6,0.7,3.4,0.6,5-0.1s2.9-2,3.6-3.6l0,0 c1.4-3.4-0.2-7.3-3.6-8.7L40,42.2L37.2,49.1z M97.4,69.7L97.4,69.7L97.4,69.7z"></path> </g> </g> </g> </svg> 