<?xml version="1.0" encoding="UTF-8"?> <!-- Generator: Adobe Illustrator 25.0.0, SVG Export Plug-In . SVG Version: 6.00 Build 0) --> <svg xmlns="http://www.w3.org/2000/svg" xmlns:xlink="http://www.w3.org/1999/xlink" version="1.1" id="Layer_1" x="0px" y="0px" viewBox="0 0 100.8 100.8" style="enable-background:new 0 0 100.8 100.8;" xml:space="preserve"> <style type="text/css"> .st0{fill:#1B3B68;} </style> <g id="background"> </g> <g id="New_Art"> </g> <g id="Layer_3"> <g> <path class="st0" d="M47,67.7c-13.8,0-25.1-11.3-25.1-25.1S33.2,17.5,47,17.5s25.1,11.3,25.1,25.1S60.9,67.7,47,67.7z M47,19.5 c-12.7,0-23.1,10.4-23.1,23.1S34.3,65.7,47,65.7s23.1-10.4,23.1-23.1S59.8,19.5,47,19.5z"></path> <path class="st0" d="M46.2,73.6c-8.4,0-16.7-3.2-23.1-9.6c-0.4-0.4-0.4-1,0-1.4s1-0.4,1.4,0c12,12,31.4,12,43.4,0s12-31.4,0-43.4 c-0.4-0.4-0.4-1,0-1.4s1-0.4,1.4,0C82,30.5,82,51.3,69.3,64C62.9,70.4,54.6,73.6,46.2,73.6z"></path> <path class="st0" d="M47,83.3c-0.6,0-1-0.4-1-1v-9.8c0-0.6,0.4-1,1-1s1,0.4,1,1v9.8C48,82.9,47.6,83.3,47,83.3z"></path> <path class="st0" d="M47.7,63.6c-0.5,0-1-0.1-1.5-0.2c-0.8-0.2-3.2-1.3-2.2-5.2l0-0.1c1.2-3.3,1.3-5.9,0.4-7.2 c-0.6-0.8-1.9-1.1-3.7-0.9c-1.7,0.2-3.3-0.7-4-2.2c-1.2-2.5-0.4-6.3,4.1-8.5c3.1-1.5,5.9-1.2,8.1-0.9c2.4,0.3,3.6,0.4,4.6-1.1 c0.4-0.7,0.4-0.9,0.4-0.9c-0.2-0.2-1.2-0.4-2-0.5c-1.8-0.3-4.2-0.8-5.7-2.6c-0.5-0.6-0.7-1.4-0.5-2.3c0.8-4.2,11.1-9.8,12.3-10.4 c0.5-0.3,1.1-0.1,1.3,0.4s0.1,1.1-0.4,1.3c-4.1,2.2-10.8,6.6-11.2,9.1c-0.1,0.3,0,0.5,0.1,0.6c1,1.3,2.9,1.6,4.5,1.9 c1.6,0.3,2.9,0.5,3.4,1.7c0.4,1-0.1,2-0.5,2.8c-1.7,2.7-4.1,2.3-6.5,2c-2.1-0.3-4.4-0.6-6.9,0.7c-3.3,1.7-4,4.2-3.2,5.9 c0.3,0.7,1.1,1.2,2,1.1c2.5-0.3,4.4,0.2,5.5,1.7c1.9,2.4,0.8,6.7-0.1,9.1c-0.6,2.3,0.5,2.6,0.8,2.8c1.9,0.6,5.5-1,6.5-3.3 c0.1-1.2-0.1-2.2-0.3-3.1c-0.3-1.4-0.5-2.8,0.6-4.1c0.4-0.5,0.9-0.9,1.5-1.4c1.2-1.1,2.4-2.3,3-3.4c0.2-0.4,0-0.7-0.1-0.8 c-0.1-0.1-0.3-0.4-0.8-0.3c-1.1,0.2-2.1,0.5-2.8-0.2c-0.3-0.2-0.6-0.7-0.5-1.4c0.6-5,4.3-5.3,7.6-5.6c3-0.3,5.8-0.5,7.5-3.6 c0.3-0.5,0.9-0.7,1.4-0.4c0.5,0.3,0.7,0.9,0.4,1.4c-2.2,4-6,4.3-9,4.6c-3.3,0.3-5.2,0.6-5.7,3.4c0.2,0,0.6-0.1,0.8-0.2 c1.1-0.2,2.2,0.2,2.8,1c0.7,0.9,0.7,2,0.2,2.9c-0.7,1.3-2.1,2.7-3.4,3.9c-0.5,0.5-0.9,0.9-1.3,1.3c-0.4,0.6-0.4,1.1-0.1,2.4 c0.2,1,0.4,2.2,0.3,3.8l-0.1,0.3C54.2,61.5,50.6,63.6,47.7,63.6z"></path> <path class="st0" d="M23.2,47.2c-0.5,0-0.9-0.3-1-0.8c-0.5-2.2,1.9-4.3,3.9-6.2c0.9-0.9,1.8-1.7,2.2-2.3c1-1.5,2.4-1.9,3.6-2.3 c0.8-0.2,1.6-0.5,2.2-1c0.5-0.4,0.5-0.7-0.5-2.4c-0.4-0.6-0.8-1.2-1-1.9c-0.9-2.2-0.8-6.7-0.8-7.2c0-0.5,0.5-1,1-1 c0.5,0,1,0.5,1,1c0,1.2,0,4.8,0.6,6.4c0.2,0.5,0.5,1.1,0.9,1.6c0.9,1.4,2.1,3.4,0.1,5c-1,0.8-2,1.1-2.9,1.4 c-1.1,0.3-1.9,0.6-2.5,1.5c-0.5,0.8-1.5,1.7-2.5,2.7C26,43.1,24,44.9,24.2,46c0.1,0.5-0.2,1.1-0.8,1.2 C23.3,47.2,23.3,47.2,23.2,47.2z"></path> </g> <path class="st0" d="M55.6,83.3H37.2c-0.5,0-1-0.4-1-1s0.5-1,1-1h18.3c0.6,0,1,0.4,1,1S56.1,83.3,55.6,83.3z"></path> </g> </svg> 