<?xml version="1.0" encoding="UTF-8"?> <svg xmlns="http://www.w3.org/2000/svg" width="234.696" height="125.148" viewBox="0 0 234.696 125.148"><path id="WFJ_HR-01" d="M315.66,451.72a2.412,2.412,0,0,0,.367-2.146,98.648,98.648,0,0,0-8.857-20.608h66.085a2.421,2.421,0,0,0,2.311-3.129c-9.373-30.438-26.7-40.648-38.715-43.988a28.322,28.322,0,1,0-26.139,0c-8.155,2.273-19.554,8.095-28.853,22.391a50.3,50.3,0,0,0-9.1-3.412,31.15,31.15,0,1,0-27.826.01c-.141.038-.279.049-.42.089a51.01,51.01,0,0,0-8.661,3.284c-9.279-14.286-20.737-20.057-28.907-22.353a28.322,28.322,0,1,0-26.12-.01c-12.586,3.512-29.481,14-38.717,43.987a2.422,2.422,0,0,0,2.311,3.129h66.032a99.546,99.546,0,0,0-8.8,20.608,2.421,2.421,0,0,0,2.311,3.129H313.716A2.409,2.409,0,0,0,315.66,451.72Zm-15.365-94.843a23.485,23.485,0,1,1,23.711,23.46A23.485,23.485,0,0,1,300.295,356.877Zm11.8,29.6a38.729,38.729,0,0,1,4.666-.992,29.258,29.258,0,0,1,6.741-.309,34.313,34.313,0,0,1,7.714.378c10.211,1.627,28.5,8.835,38.713,38.573h-65.8a59.567,59.567,0,0,0-18.019-17.556C294.582,393.709,304.808,388.5,312.093,386.48Zm-79.568-13.471a26.312,26.312,0,1,1,26.349,26.307c-.082-.008-.183-.016-.336-.027a26.325,26.325,0,0,1-26.013-26.281Zm-62.114-16.131a23.485,23.485,0,1,1,23.711,23.46A23.485,23.485,0,0,1,170.411,356.877ZM147.749,424.13c8.771-25.571,23.468-34.607,34.46-37.65a38.684,38.684,0,0,1,4.669-.992,29.238,29.238,0,0,1,6.738-.309,33.948,33.948,0,0,1,7.714.378c8.545,1.361,20.511,6.253,30.221,21.021a59.033,59.033,0,0,0-18.073,17.552Zm59.533,23.738c7.152-21.081,17.912-32.126,28-37.873a2.338,2.338,0,0,0,1.116-.312,2.387,2.387,0,0,0,.727-.682,46.121,46.121,0,0,1,8.684-3.412,42.775,42.775,0,0,1,5.209-1.1,34.682,34.682,0,0,1,6.2-.41c.542.028,1.078.082,1.627.082.471,0,.929-.049,1.4-.07a35.594,35.594,0,0,1,6.89.472,45.064,45.064,0,0,1,13.669,4.586,2.342,2.342,0,0,0,.522.477,2.429,2.429,0,0,0,.939.314c9.953,5.651,20.9,16.631,28.139,37.934Z" transform="translate(-141.49 -328.056)" fill="#1b3a68" stroke="#1b3a68" stroke-width="1"></path></svg> 