<?xml version="1.0" encoding="UTF-8"?> <!-- Generator: Adobe Illustrator 25.0.0, SVG Export Plug-In . SVG Version: 6.00 Build 0) --> <svg xmlns="http://www.w3.org/2000/svg" xmlns:xlink="http://www.w3.org/1999/xlink" version="1.1" id="Layer_1" x="0px" y="0px" viewBox="0 0 100.8 100.8" style="enable-background:new 0 0 100.8 100.8;" xml:space="preserve"> <style type="text/css"> .st0{fill:#1B3B68;} </style> <g id="background"> </g> <g id="New_Art"> </g> <g id="Layer_3"> <circle class="st0" cx="73.9" cy="47" r="1.9"></circle> <path class="st0" d="M71.2,83.5h-3.9c-2,0-3.6-1.6-3.6-3.6v-1.5c-5.8,1.7-12.1,1.8-18,0.3v1.2c0,2-1.6,3.6-3.6,3.6H38 c-2,0-3.6-1.6-3.6-3.6v-6.3c-6.8-4.9-10.6-12.1-10.6-19.7C23.8,41.6,34,30.9,48,28.5l0.3,2c-13.1,2.3-22.6,12.1-22.6,23.4 c0,7.1,3.7,13.8,10.2,18.3l0.4,0.3v7.4c0,0.9,0.7,1.6,1.6,1.6H42c0.9,0,1.6-0.7,1.6-1.6V76l1.3,0.4c6.3,1.8,13.2,1.7,19.4-0.3 l1.3-0.4v4.2c0,0.9,0.7,1.6,1.6,1.6h3.9c0.9,0,1.6-0.7,1.6-1.6v-8.2l0.4-0.3c2-1.6,3.8-3.4,5.2-5.5l0.3-0.4h7.4c1.1,0,2-0.9,2-2 V51.9c0-1.1-0.9-2-2-2H82l-0.2-0.8c-1.1-4.5-3.7-8.7-7.6-12l-0.6-0.5l0.4-0.7c0.7-1.3,1.5-2.4,2.3-3.3c-1.1,0.2-2.6,0.8-4.3,2 L71.4,35l-0.6-0.4c-3.2-2-6.7-3.4-10.4-4.1l0.4-2c3.8,0.7,7.3,2.1,10.6,4c4.8-3.2,8.1-1.8,8.2-1.8l2.1,0.9l-2,0.9 c-1.5,0.7-2.7,2.1-3.4,3.4c3.7,3.3,6.2,7.4,7.4,11.8h2.6c2.2,0,4,1.8,4,4v11.5c0,2.2-1.8,4-4,4h-6.3c-1.4,1.9-3,3.6-4.9,5.2v7.2 C74.8,81.8,73.2,83.5,71.2,83.5z"></path> <path class="st0" d="M63.4,36.6c-0.1,0-0.3,0-0.4-0.1c0,0-4.2-2-8.9-2c-4.6,0-8.2,1.7-8.2,1.7c-0.5,0.2-1.1,0-1.3-0.5 c-0.2-0.5,0-1.1,0.4-1.3c0.2-0.1,4-2,9.1-2s9.6,2.1,9.8,2.2c0.5,0.2,0.7,0.8,0.5,1.3C64.1,36.4,63.8,36.6,63.4,36.6z"></path> <path class="st0" d="M54.4,34.1c-4.6,0-8.3-3.8-8.3-8.4s3.8-8.3,8.3-8.3c4.6,0,8.3,3.8,8.3,8.3C62.7,30.3,59,34.1,54.4,34.1z M54.4,19.3c-3.5,0-6.3,2.8-6.3,6.3s2.8,6.4,6.3,6.4s6.3-2.9,6.3-6.4C60.7,22.2,57.9,19.3,54.4,19.3z"></path> <path class="st0" d="M19.2,59.4c-0.8,0-1.5-0.2-2.3-0.8c-0.8-0.6-1.4-1.4-1.5-2.3c-0.1-1,0.2-2,0.6-2.8c0,0,0,0-0.1,0 c-2.4,0.4-3.4,3.2-3.4,3.3c-0.2,0.5-0.8,0.8-1.3,0.6s-0.8-0.8-0.6-1.3c0.1-0.2,1.4-4,5-4.6c0.7-0.1,1.4-0.1,2.1-0.1 c1.8-1.3,4.7-1.4,7.4,0c0.5,0.2,0.7,0.8,0.5,1.3c-0.2,0.5-0.8,0.7-1.3,0.4c-1.2-0.6-2.5-0.8-3.5-0.8c0.3,0.2,0.5,0.4,0.8,0.6 c0.9,0.9,1.2,2.1,1,3.3c-0.2,1.3-1,2.3-2,2.7C20.1,59.3,19.7,59.4,19.2,59.4z M18.4,53.6c-0.6,0.7-1.1,1.7-1,2.4 c0,0.2,0.1,0.6,0.6,0.9c0.6,0.4,1.2,0.5,1.6,0.3c0.4-0.2,0.7-0.6,0.8-1.2c0.1-0.6,0-1.2-0.5-1.6C19.7,54.1,19.1,53.8,18.4,53.6z"></path> <g> <g> <path class="st0" d="M54.4,72.2c-0.6,0-1-0.4-1-1V40.5c0-0.5,0.4-1,1-1s1,0.5,1,1v30.6C55.4,71.7,54.9,72.2,54.4,72.2z"></path> </g> <path class="st0" d="M54.4,67c-3.3,0-6-2.7-6-6c0-0.6,0.4-1,1-1s1,0.4,1,1c0,2.2,1.8,4,4,4s4-1.8,4-4c0-3-3.2-3.9-4.2-4.1 c-1.5-0.4-5.8-1.7-5.8-6c0-3.3,2.7-6,6-6s6,2.7,6,6c0,0.6-0.4,1-1,1s-1-0.4-1-1c0-2.2-1.8-4-4-4s-4,1.8-4,4c0,2,1.3,3.2,4.3,4.1 c3.5,0.8,5.7,3.1,5.7,6.1C60.4,64.2,57.7,67,54.4,67z"></path> </g> </g> </svg> 