<?xml version="1.0" encoding="UTF-8"?> <svg xmlns="http://www.w3.org/2000/svg" width="586.013" height="41" viewBox="0 0 586.013 41"><g id="Group_1201" data-name="Group 1201" transform="translate(0 0.1)"><path id="Path_1481" data-name="Path 1481" d="M23.5,37.152H18.541L14.494,13.257h-.131L10.446,37.152H5.484L0,.2H5.615L8.226,23.573h.131L12.535.2h4.048l4.309,24.025h0L23.5.2h5.615Z" transform="translate(0 0.092)" fill="#fff"></path><path id="Path_1482" data-name="Path 1482" d="M31.626.2h4.309l8.226,36.822H38.938l-1.567-7.965H30.19l-1.567,7.965H23.4Zm2.22,10.707h0L31.1,24.225h5.223Z" transform="translate(7.154 0.092)" fill="#fff"></path><path id="Path_1483" data-name="Path 1483" d="M42.7,9.01a9.54,9.54,0,0,1,.783-3.917A7.786,7.786,0,0,1,45.573,2.22a7.982,7.982,0,0,1,2.873-1.7A7.9,7.9,0,0,1,51.579,0a8.778,8.778,0,0,1,3.134.522,9.266,9.266,0,0,1,2.873,1.7,9.6,9.6,0,0,1,2.089,2.873,9.54,9.54,0,0,1,.783,3.917v1.828H55.235V9.01A3.848,3.848,0,0,0,54.19,6.137a5.258,5.258,0,0,0-2.611-.914,3.447,3.447,0,0,0-2.481.914A3.848,3.848,0,0,0,48.053,9.01V28.465A3.848,3.848,0,0,0,49.1,31.338a3.824,3.824,0,0,0,4.962,0A3.848,3.848,0,0,0,55.1,28.465v-6.92H50.926v-4.7h9.532V28.465a8.721,8.721,0,0,1-.783,3.917,6.415,6.415,0,0,1-2.089,2.742,7.982,7.982,0,0,1-2.873,1.7,9.662,9.662,0,0,1-6.268,0,9.266,9.266,0,0,1-2.873-1.7,10.89,10.89,0,0,1-2.089-2.742,9.54,9.54,0,0,1-.783-3.917Z" transform="translate(13.055 0.031)" fill="#fff"></path><path id="Path_1484" data-name="Path 1484" d="M61.2.2h5.092l7.965,22.2h.131V.2h5.223V37.022H74.649l-8.1-22.2h-.131v22.2H61.2Z" transform="translate(18.711 0.092)" fill="#fff"></path><path id="Path_1485" data-name="Path 1485" d="M80.6.2H96.4V5.162H85.953V16h9.14v4.962h-9.14V31.8H96.4v5.223H80.6Z" transform="translate(24.642 0.092)" fill="#fff"></path><path id="Path_1486" data-name="Path 1486" d="M96.9.2h8.487c6.268,0,9.271,3.656,9.271,10.838a14.157,14.157,0,0,1-1.045,5.484,7.352,7.352,0,0,1-3.525,3.656l5.745,16.844h-5.615l-4.962-15.8h-3.134v15.8H96.9V.2Zm5.223,16.583h3a5.2,5.2,0,0,0,2.22-.392,3.7,3.7,0,0,0,1.306-1.175,5.962,5.962,0,0,0,.653-1.828,14.219,14.219,0,0,0,.131-2.481,14.994,14.994,0,0,0-.131-2.481,4.387,4.387,0,0,0-.653-1.828,3.192,3.192,0,0,0-1.436-1.175,5.87,5.87,0,0,0-2.35-.392h-2.742Z" transform="translate(29.625 0.092)" fill="#fff"></path><path id="Path_1487" data-name="Path 1487" d="M115.1,24.4h5.223v5.223L115.1,33.41Z" transform="translate(35.19 7.49)" fill="#fff"></path><path id="Path_1488" data-name="Path 1488" d="M133.3.2h15.8V5.162H138.654V16.391h9.14v4.962h-9.14v15.8h-5.223V.2Z" transform="translate(40.754 0.092)" fill="#fff"></path><path id="Path_1489" data-name="Path 1489" d="M153.9.2h4.439l8.226,36.822h-5.223l-1.567-7.965H152.59l-1.567,7.965H145.8Zm2.22,10.707h0l-2.742,13.318H158.6Z" transform="translate(44.576 0.092)" fill="#fff"></path><path id="Path_1490" data-name="Path 1490" d="M165.331.2h5.223V31.8H181v5.223H165.2V.2Z" transform="translate(50.507 0.092)" fill="#fff"></path><path id="Path_1491" data-name="Path 1491" d="M198.375,29.018a9.092,9.092,0,0,1-.653,3.264,7.778,7.778,0,0,1-1.828,2.742,8.626,8.626,0,0,1-2.611,1.828,6.97,6.97,0,0,1-3.264.653,11.855,11.855,0,0,1-3-.392,6.909,6.909,0,0,1-2.742-1.436,8.386,8.386,0,0,1-2.089-2.611,9.54,9.54,0,0,1-.783-4.178V8.518a9.808,9.808,0,0,1,.653-3.395,9.706,9.706,0,0,1,1.7-2.742A10.062,10.062,0,0,1,186.492.553,9.969,9.969,0,0,1,190.018-.1a9.808,9.808,0,0,1,3.395.653,7.778,7.778,0,0,1,2.742,1.828,10.061,10.061,0,0,1,1.828,2.742,9.969,9.969,0,0,1,.653,3.525v2.089h-5.223V9.171a4.1,4.1,0,0,0-.914-2.742,2.792,2.792,0,0,0-2.35-1.175,2.675,2.675,0,0,0-2.611,1.175,6.993,6.993,0,0,0-.653,3.134v18.8a6.069,6.069,0,0,0,.653,2.742,2.644,2.644,0,0,0,2.481,1.045,4.028,4.028,0,0,0,1.175-.131,1.794,1.794,0,0,0,1.045-.653,1.9,1.9,0,0,0,.783-1.175,3.872,3.872,0,0,0,.261-1.828V26.537h5.223v2.481Z" transform="translate(55.46 0)" fill="#fff"></path><path id="Path_1492" data-name="Path 1492" d="M199,9.01a9.54,9.54,0,0,1,.783-3.917,7.785,7.785,0,0,1,2.089-2.873,7.982,7.982,0,0,1,2.873-1.7,9.662,9.662,0,0,1,6.268,0,9.265,9.265,0,0,1,2.873,1.7,9.6,9.6,0,0,1,2.089,2.873,9.54,9.54,0,0,1,.783,3.917V28.465a8.721,8.721,0,0,1-.783,3.917,6.415,6.415,0,0,1-2.089,2.742,7.982,7.982,0,0,1-2.873,1.7,9.662,9.662,0,0,1-6.268,0,9.265,9.265,0,0,1-2.873-1.7,10.891,10.891,0,0,1-2.089-2.742A9.54,9.54,0,0,1,199,28.465Zm5.353,19.455a3.848,3.848,0,0,0,1.045,2.873,3.824,3.824,0,0,0,4.962,0,3.848,3.848,0,0,0,1.045-2.873V9.01a3.848,3.848,0,0,0-1.045-2.873,3.824,3.824,0,0,0-4.962,0,3.848,3.848,0,0,0-1.045,2.873Z" transform="translate(60.841 0.031)" fill="#fff"></path><path id="Path_1493" data-name="Path 1493" d="M217.6.2h5.092l7.965,22.2h.131V.2h5.223V37.022h-4.962l-8.1-22.2h-.131v22.2H217.6Z" transform="translate(66.527 0.092)" fill="#fff"></path><path id="Path_1494" data-name="Path 1494" d="M237,.2h15.669V5.162H242.223V16h9.14v4.962h-9.14V31.8h10.446v5.223H237Z" transform="translate(72.459 0.092)" fill="#fff"></path><path id="Path_1495" data-name="Path 1495" d="M253.2.2h8.487c6.267,0,9.271,3.656,9.271,10.838a14.157,14.157,0,0,1-1.045,5.484,7.351,7.351,0,0,1-3.526,3.656l5.745,16.844h-5.615l-4.962-15.8h-3.134v15.8H253.2V.2Zm5.354,16.583h3a5.2,5.2,0,0,0,2.22-.392,3.7,3.7,0,0,0,1.306-1.175,5.962,5.962,0,0,0,.653-1.828,14.217,14.217,0,0,0,.131-2.481,14.992,14.992,0,0,0-.131-2.481,4.387,4.387,0,0,0-.653-1.828,3.192,3.192,0,0,0-1.436-1.175,5.871,5.871,0,0,0-2.35-.392h-2.742Z" transform="translate(77.411 0.092)" fill="#fff"></path><path id="Path_1496" data-name="Path 1496" d="M294.855,33.485a10.862,10.862,0,0,1-3.264,2.35,8.93,8.93,0,0,1-3.787.783,8.294,8.294,0,0,1-3-.653,10.466,10.466,0,0,1-2.481-1.7,9.393,9.393,0,0,1-1.567-2.742A9.969,9.969,0,0,1,280.1,28a10.237,10.237,0,0,1,1.436-5.354,22.121,22.121,0,0,1,3.656-4.309,25.114,25.114,0,0,1-2.35-4.048,10.411,10.411,0,0,1-.914-4.439,6.819,6.819,0,0,1,.522-2.742,5.279,5.279,0,0,1,1.306-2.22,6.828,6.828,0,0,1,2.22-1.567A7.9,7.9,0,0,1,289.11,2.8a7.257,7.257,0,0,1,3,.522,6.517,6.517,0,0,1,2.22,1.436,7.015,7.015,0,0,1,1.306,2.089,8.441,8.441,0,0,1,.522,2.611,8.9,8.9,0,0,1-1.567,4.962,23.591,23.591,0,0,1-3.787,4.309c.653,1.045,1.436,2.22,2.22,3.656a42.886,42.886,0,0,0,2.611,4.048l2.873-3.917,3.264,2.22-3.917,5.092,4.048,6.268h-5.223Zm-9.924-5.615a4.774,4.774,0,0,0,1.175,3.264,3.649,3.649,0,0,0,2.873,1.436,3.546,3.546,0,0,0,2.22-.783,10.6,10.6,0,0,0,1.7-1.436l-5.092-8.1a12.416,12.416,0,0,0-1.959,2.611A4.578,4.578,0,0,0,284.931,27.87Zm1.828-17.758a6.64,6.64,0,0,0,.522,2.611,27.627,27.627,0,0,0,1.436,2.742l1.045-1.045a5.112,5.112,0,0,0,1.045-1.306l.783-1.567a4.149,4.149,0,0,0,.261-1.828,3.12,3.12,0,0,0-.653-1.828,2.191,2.191,0,0,0-1.828-.783,2.349,2.349,0,0,0-1.959.914A3.945,3.945,0,0,0,286.759,10.112Z" transform="translate(85.636 0.887)" fill="#fff"></path><path id="Path_1497" data-name="Path 1497" d="M323.43,28.373a9.809,9.809,0,0,1-.653,3.395,8.3,8.3,0,0,1-1.828,2.873,9.3,9.3,0,0,1-2.873,1.959,8.523,8.523,0,0,1-3.787.783,6.887,6.887,0,0,1-4.178-1.175,15.414,15.414,0,0,1-2.611-2.22l4.178-3.264a4.69,4.69,0,0,0,1.306.914,3.477,3.477,0,0,0,1.567.392A3.245,3.245,0,0,0,315.6,31.9a5.293,5.293,0,0,0,1.175-.653,4.689,4.689,0,0,0,.914-1.306,5.2,5.2,0,0,0,.392-2.22V.3H323.3V28.373Z" transform="translate(94.013 0.122)" fill="#fff"></path><path id="Path_1498" data-name="Path 1498" d="M342.174,28.8a9.809,9.809,0,0,1-.653,3.395,8.4,8.4,0,0,1-4.57,4.57,8.487,8.487,0,0,1-6.529,0,8.4,8.4,0,0,1-4.57-4.57A9.809,9.809,0,0,1,325.2,28.8V.2h5.223V28.273a3.81,3.81,0,0,0,.914,2.873,3.479,3.479,0,0,0,4.7,0,3.81,3.81,0,0,0,.914-2.873V.2h5.223Z" transform="translate(99.424 0.092)" fill="#fff"></path><path id="Path_1499" data-name="Path 1499" d="M343.6.2h7.834c3,0,5.354.783,6.92,2.481a10,10,0,0,1,2.35,7.051V26.968c0,3.395-.783,6.006-2.481,7.573-1.7,1.7-4.048,2.481-7.182,2.481h-7.312V.2Zm5.223,31.99H351.3a3.856,3.856,0,0,0,3.134-1.175,5.416,5.416,0,0,0,.914-3.525V9.732a5.253,5.253,0,0,0-.914-3.395,3.972,3.972,0,0,0-3.264-1.175h-2.481V32.19Z" transform="translate(105.05 0.092)" fill="#fff"></path><path id="Path_1500" data-name="Path 1500" d="M362,.2h7.834c3,0,5.354.783,6.92,2.481a10,10,0,0,1,2.35,7.051V26.968c0,3.395-.783,6.006-2.481,7.573-1.7,1.7-4.048,2.481-7.182,2.481H362Zm5.354,31.99h2.481a3.856,3.856,0,0,0,3.134-1.175,5.416,5.416,0,0,0,.914-3.525V9.732a5.253,5.253,0,0,0-.914-3.395,4.108,4.108,0,0,0-3.134-1.175h-2.481Z" transform="translate(110.675 0.092)" fill="#fff"></path><path id="Path_1501" data-name="Path 1501" d="M380.3,24.4h5.223v5.223L380.3,33.41Z" transform="translate(116.27 7.49)" fill="#fff"></path><path id="Path_1502" data-name="Path 1502" d="M398.531.2h5.223V31.8H414.2v5.223H398.4V.2Z" transform="translate(121.804 0.092)" fill="#fff"></path><path id="Path_1503" data-name="Path 1503" d="M415.837,5.162H409.7V.2h17.5V5.162H421.06v31.86h-5.223V5.162Z" transform="translate(125.259 0.092)" fill="#fff"></path><path id="Path_1504" data-name="Path 1504" d="M426.5.2h7.834c3,0,5.354.783,6.92,2.481a10,10,0,0,1,2.35,7.051V26.968c0,3.395-.783,6.006-2.481,7.573-1.7,1.7-4.048,2.481-7.182,2.481H426.63V.2Zm5.354,31.99h2.481a3.856,3.856,0,0,0,3.134-1.175,5.416,5.416,0,0,0,.914-3.525V9.732a5.253,5.253,0,0,0-.914-3.395A3.972,3.972,0,0,0,434.2,5.162h-2.481V32.19Z" transform="translate(130.395 0.092)" fill="#fff"></path><path id="Path_1505" data-name="Path 1505" d="M444.8,24.4h5.223v5.223H444.8Z" transform="translate(135.99 7.49)" fill="#fff"></path></g></svg> 