<?xml version="1.0" encoding="UTF-8"?> <svg xmlns="http://www.w3.org/2000/svg" id="Layer_1" data-name="Layer 1" width="586.01" height="41" viewBox="0 0 586.01 41"><title>wfj-footer-logo</title><g id="Group_1201" data-name="Group 1201"><path id="Path_1481" data-name="Path 1481" d="M23.5,37.34h-5l-4-23.89h-.13L10.45,37.34h-5L0,.39H5.61L8.23,23.76h.13L12.53.39h4l4.31,24h0L23.5.39h5.61Z" style="fill:#1c3a68"></path><path id="Path_1482" data-name="Path 1482" d="M38.78.39h4.31l8.22,36.82H46.09l-1.57-8H37.34l-1.56,8H30.55ZM41,11.1h0L38.25,24.42h5.23Z" style="fill:#1c3a68"></path><path id="Path_1483" data-name="Path 1483" d="M55.76,9.14a9.44,9.44,0,0,1,.78-3.92,7.71,7.71,0,0,1,2.09-2.87A8,8,0,0,1,61.5.65,8,8,0,0,1,64.63.13a8.85,8.85,0,0,1,3.14.52,9.48,9.48,0,0,1,2.87,1.7,9.59,9.59,0,0,1,2.09,2.88,9.55,9.55,0,0,1,.78,3.91V11H68.29V9.14a3.82,3.82,0,0,0-1.05-2.87,5.3,5.3,0,0,0-2.61-.92,3.51,3.51,0,0,0-2.48.92,3.81,3.81,0,0,0-1,2.87V28.6a3.54,3.54,0,1,0,7,0V21.68H64V17h9.53V28.6a8.64,8.64,0,0,1-.78,3.91,6.45,6.45,0,0,1-2.09,2.75A8.13,8.13,0,0,1,67.77,37a9.75,9.75,0,0,1-6.27,0,9.36,9.36,0,0,1-2.87-1.7,10.76,10.76,0,0,1-2.09-2.75,9.56,9.56,0,0,1-.79-3.91Z" style="fill:#1c3a68"></path><path id="Path_1484" data-name="Path 1484" d="M79.91.39H85l8,22.2h.13V.39h5.22V37.21h-5L85.26,15h-.13v22.2H79.91Z" style="fill:#1c3a68"></path><path id="Path_1485" data-name="Path 1485" d="M105.24.39H121v5H110.6V16.19h9.14v5H110.6V32H121v5.22h-15.8Z" style="fill:#1c3a68"></path><path id="Path_1486" data-name="Path 1486" d="M126.53.39H135c6.27,0,9.27,3.66,9.27,10.84a14.09,14.09,0,0,1-1,5.48,7.39,7.39,0,0,1-3.53,3.66l5.75,16.84h-5.62l-5-15.8h-3.13v15.8h-5.22ZM131.75,17h3a5.27,5.27,0,0,0,2.22-.4,3.65,3.65,0,0,0,1.3-1.17,6,6,0,0,0,.66-1.83,14.68,14.68,0,0,0,.13-2.48,15.8,15.8,0,0,0-.13-2.48,4.3,4.3,0,0,0-.66-1.83,3.14,3.14,0,0,0-1.43-1.17,5.91,5.91,0,0,0-2.35-.4h-2.74Z" style="fill:#1c3a68"></path><path id="Path_1487" data-name="Path 1487" d="M150.29,32h5.22v5.22L150.29,41Z" style="fill:#1c3a68"></path><path id="Path_1488" data-name="Path 1488" d="M174.05.39h15.8v5H179.41V16.58h9.14v5h-9.14V37.34h-5.22V.39Z" style="fill:#1c3a68"></path><path id="Path_1489" data-name="Path 1489" d="M198.48.39h4.43l8.23,36.82h-5.22l-1.57-8h-7.18l-1.57,8h-5.22ZM200.7,11.1h0L198,24.42h5.23Z" style="fill:#1c3a68"></path><path id="Path_1490" data-name="Path 1490" d="M215.84.39h5.22V32h10.45v5.22h-15.8V.39Z" style="fill:#1c3a68"></path><path id="Path_1491" data-name="Path 1491" d="M253.83,29.12a8.9,8.9,0,0,1-.65,3.26,7.59,7.59,0,0,1-1.83,2.74A8.5,8.5,0,0,1,248.74,37a6.93,6.93,0,0,1-3.26.65,11.71,11.71,0,0,1-3-.39,6.8,6.8,0,0,1-2.74-1.43,8.26,8.26,0,0,1-2.09-2.61,9.7,9.7,0,0,1-.79-4.18V8.62a9.92,9.92,0,0,1,.66-3.4,9.6,9.6,0,0,1,1.7-2.74A10.29,10.29,0,0,1,242,.65a9.53,9.53,0,0,1,6.92,0,7.85,7.85,0,0,1,2.75,1.83,10.07,10.07,0,0,1,1.82,2.74,10.13,10.13,0,0,1,.66,3.53v2.09h-5.23V9.27A4.07,4.07,0,0,0,248,6.53a2.81,2.81,0,0,0-2.35-1.18A2.69,2.69,0,0,0,243,6.53a7,7,0,0,0-.66,3.13v18.8A6,6,0,0,0,243,31.2a2.63,2.63,0,0,0,2.48,1.05,4.2,4.2,0,0,0,1.17-.13,1.82,1.82,0,0,0,1-.65,1.92,1.92,0,0,0,.78-1.18,3.82,3.82,0,0,0,.26-1.83V26.64H254v2.48Z" style="fill:#1c3a68"></path><path id="Path_1492" data-name="Path 1492" d="M259.84,9.14a9.6,9.6,0,0,1,.78-3.92,7.82,7.82,0,0,1,2.09-2.87,8.08,8.08,0,0,1,2.88-1.7,9.59,9.59,0,0,1,6.26,0,9.41,9.41,0,0,1,2.88,1.7,9.72,9.72,0,0,1,2.09,2.87,9.6,9.6,0,0,1,.78,3.92V28.6a8.77,8.77,0,0,1-.78,3.91,6.53,6.53,0,0,1-2.09,2.75,8.08,8.08,0,0,1-2.88,1.7,9.72,9.72,0,0,1-6.26,0,9.41,9.41,0,0,1-2.88-1.7,11.24,11.24,0,0,1-2.09-2.75,9.55,9.55,0,0,1-.78-3.91Zm5.35,19.46a3.86,3.86,0,0,0,1.05,2.87,3.82,3.82,0,0,0,5,0,3.86,3.86,0,0,0,1.05-2.87V9.14a3.86,3.86,0,0,0-1.05-2.87,3.82,3.82,0,0,0-5,0,3.86,3.86,0,0,0-1.05,2.87Z" style="fill:#1c3a68"></path><path id="Path_1493" data-name="Path 1493" d="M284.13.39h5.09l8,22.2h.13V.39h5.23V37.21h-5L289.48,15h-.14v22.2h-5.21Z" style="fill:#1c3a68"></path><path id="Path_1494" data-name="Path 1494" d="M309.46.39h15.67v5H314.68V16.19h9.14v5h-9.14V32h10.45v5.22H309.46Z" style="fill:#1c3a68"></path><path id="Path_1495" data-name="Path 1495" d="M330.61.39h8.49c6.27,0,9.27,3.66,9.27,10.84a14.1,14.1,0,0,1-1.05,5.48,7.33,7.33,0,0,1-3.52,3.66l5.74,16.84h-5.61l-5-15.8h-3.14v15.8h-5.22ZM336,17h3a5.27,5.27,0,0,0,2.22-.4,3.6,3.6,0,0,0,1.31-1.17,5.72,5.72,0,0,0,.65-1.83,14.68,14.68,0,0,0,.14-2.48,14.68,14.68,0,0,0-.14-2.48,4.28,4.28,0,0,0-.65-1.83,3.12,3.12,0,0,0-1.44-1.17,5.85,5.85,0,0,0-2.35-.4H336Z" style="fill:#1c3a68"></path><path id="Path_1496" data-name="Path 1496" d="M380.49,34.47a10.81,10.81,0,0,1-3.26,2.35,9,9,0,0,1-3.79.79,8.38,8.38,0,0,1-3-.66,10.21,10.21,0,0,1-2.48-1.7,9.57,9.57,0,0,1-1.57-2.74,9.89,9.89,0,0,1-.65-3.52,10.19,10.19,0,0,1,1.43-5.36,22.47,22.47,0,0,1,3.66-4.31,24.31,24.31,0,0,1-2.35-4,10.46,10.46,0,0,1-.92-4.44,6.84,6.84,0,0,1,.53-2.75,5.33,5.33,0,0,1,1.3-2.22,6.92,6.92,0,0,1,2.22-1.56,7.83,7.83,0,0,1,3.14-.52,7.2,7.2,0,0,1,3,.52A6.61,6.61,0,0,1,380,5.74a7.32,7.32,0,0,1,1.3,2.09,8.36,8.36,0,0,1,.52,2.62,8.88,8.88,0,0,1-1.56,5,24.3,24.3,0,0,1-3.79,4.31c.65,1,1.44,2.22,2.22,3.65a43,43,0,0,0,2.61,4.05l2.87-3.92,3.27,2.22-3.92,5.09,4.05,6.27h-5.22Zm-9.92-5.61a4.76,4.76,0,0,0,1.17,3.26,3.66,3.66,0,0,0,2.87,1.44,3.5,3.5,0,0,0,2.22-.79,10.14,10.14,0,0,0,1.7-1.43l-5.09-8.1a12.83,12.83,0,0,0-2,2.61A4.57,4.57,0,0,0,370.57,28.86ZM372.4,11.1a6.51,6.51,0,0,0,.52,2.61,25.44,25.44,0,0,0,1.43,2.74l1-1a5.05,5.05,0,0,0,1-1.31l.79-1.57a4.18,4.18,0,0,0,.26-1.82,3.1,3.1,0,0,0-.66-1.83A2.15,2.15,0,0,0,375,8.1a2.3,2.3,0,0,0-2,.91A3.88,3.88,0,0,0,372.4,11.1Z" style="fill:#1c3a68"></path><path id="Path_1497" data-name="Path 1497" d="M417.44,28.59a9.6,9.6,0,0,1-.65,3.4A8.28,8.28,0,0,1,415,34.86a9.1,9.1,0,0,1-2.87,2,8.4,8.4,0,0,1-3.79.78,6.9,6.9,0,0,1-4.18-1.17,15.8,15.8,0,0,1-2.61-2.22L405.69,31a4.8,4.8,0,0,0,1.31.91,3.4,3.4,0,0,0,1.56.39,3.09,3.09,0,0,0,1.05-.13,4.85,4.85,0,0,0,1.18-.65,4.8,4.8,0,0,0,.91-1.31,5.11,5.11,0,0,0,.39-2.22V.52h5.22V28.59Z" style="fill:#1c3a68"></path><path id="Path_1498" data-name="Path 1498" d="M441.6,29a9.92,9.92,0,0,1-.66,3.4,8.48,8.48,0,0,1-15.66,0,9.92,9.92,0,0,1-.66-3.4V.39h5.23V28.47a3.76,3.76,0,0,0,.91,2.87,3.48,3.48,0,0,0,4.7,0,3.81,3.81,0,0,0,.92-2.87V.39h5.22Z" style="fill:#1c3a68"></path><path id="Path_1499" data-name="Path 1499" d="M448.65.39h7.83c3,0,5.36.78,6.92,2.48a10,10,0,0,1,2.35,7.05V27.16c0,3.4-.78,6-2.48,7.57s-4,2.48-7.18,2.48h-7.31V.39Zm5.22,32h2.48a3.82,3.82,0,0,0,3.13-1.17,5.4,5.4,0,0,0,.92-3.53V9.92a5.24,5.24,0,0,0-.92-3.39,4,4,0,0,0-3.26-1.18h-2.48v27Z" style="fill:#1c3a68"></path><path id="Path_1500" data-name="Path 1500" d="M472.68.39h7.83c3,0,5.35.78,6.92,2.48a10,10,0,0,1,2.35,7.05V27.16c0,3.4-.78,6-2.48,7.57s-4.05,2.48-7.18,2.48h-7.44Zm5.35,32h2.48a3.82,3.82,0,0,0,3.13-1.17,5.4,5.4,0,0,0,.92-3.53V9.92a5.24,5.24,0,0,0-.92-3.39,4.11,4.11,0,0,0-3.13-1.18H478Z" style="fill:#1c3a68"></path><path id="Path_1501" data-name="Path 1501" d="M496.57,32h5.22v5.22L496.57,41Z" style="fill:#1c3a68"></path><path id="Path_1502" data-name="Path 1502" d="M520.34.39h5.22V32H536v5.22H520.2V.39Z" style="fill:#1c3a68"></path><path id="Path_1503" data-name="Path 1503" d="M541.1,5.35H535v-5h17.5v5h-6.14V37.21H541.1Z" style="fill:#1c3a68"></path><path id="Path_1504" data-name="Path 1504" d="M556.9.39h7.83c3,0,5.35.78,6.92,2.48A10,10,0,0,1,574,9.92V27.16c0,3.4-.78,6-2.48,7.57s-4,2.48-7.18,2.48H557V.39Zm5.35,32h2.48a3.82,3.82,0,0,0,3.13-1.17,5.4,5.4,0,0,0,.92-3.53V9.92a5.24,5.24,0,0,0-.92-3.39,4,4,0,0,0-3.26-1.18h-2.49v27Z" style="fill:#1c3a68"></path><path id="Path_1505" data-name="Path 1505" d="M580.79,32H586v5.22h-5.22Z" style="fill:#1c3a68"></path></g></svg> 